<svg width="1000" height="327" viewBox="0 0 1000 327" fill="none" xmlns="http://www.w3.org/2000/svg">
<g clip-path="url(#clip0_600_14147)">
<path fill-rule="evenodd" clip-rule="evenodd" d="M769 28C769 13 781.6 0.5 797 0.5C812.4 0.5 824.7 12.9 824.7 28.2C824.7 43.6 812.3 56 797 56C781.7 56 769.3 43.6 769.3 28.3M829.3 66.8C848.3 68.5 862.9 84.3 862.9 103.5V180C862.9 186 858.1 190.7 852.2 190.7C846.2 190.7 841.4 185.9 841.4 180V114C841.4 111.6 840.6 108.2 836.1 108.2C832.8 108.2 832.1 111.5 832.1 113.6V311.2C832.1 319.7 825.1 326.6 816.7 326.6C808.1 326.6 801.2 319.6 801.2 311.2V197.4C801.2 196.1 800.8 192.8 796.9 192.8C792.9 192.8 792.4 196.1 792.3 197.3V311.3C792.3 319.7 785.5 326.6 777 326.6C768.5 326.6 761.5 319.6 761.5 311.2V113.6C761.5 111.6 760.7 108.2 757.5 108.2C753 108.2 752.3 111.6 752.3 114V180C752.3 185.8 747.5 190.7 741.5 190.7C735.5 190.7 730.7 185.7 730.7 179.9V103C730.7 83.7 745.4 68 764.2 66.2H829.2M604.6 42.7C604.6 28.3 592.9 16.5 578.4 16.5C563.9 16.5 552 28 552 42.6C552 57.2 563.8 68.8 578.3 68.8C592.8 68.8 604.5 57 604.5 42.5M525.5 101.9L503.7 172.7C503.7 172.7 499.7 185.7 510.9 188.9C521.9 192.1 525.1 179.4 525.1 179.4L542.6 120.2C542.6 120.2 543.6 115.6 547 116.6C550.6 117.6 549.3 122.4 549.3 122.4L518.7 233.4H547V313C547 320.5 553.3 326.6 560.8 326.6C568.4 326.6 574.5 320.6 574.5 313V233.6H582.3V313C582.3 320.6 588.3 326.7 596 326.7C603.7 326.7 609.7 320.7 609.7 313.1V233.8H638L607.4 122.8C607.4 122.8 606.1 118.1 609.4 117.1C613 116.1 613.9 120.7 613.9 120.7L631.4 179.9C631.4 179.9 634.7 192.6 645.7 189.4C656.7 186.2 652.7 173.2 652.7 173.2L631 102.2C631 102.2 623.3 81.8 606 81.8H550.5C533.2 81.8 525.5 102.3 525.5 102.3M447.5 42.9C447.5 28.5 435.7 16.7 421.3 16.7C406.8 16.7 395 28.4 395 42.9C395 57.4 406.7 69.1 421.2 69.1C435.6 69.1 447.4 57.3 447.4 42.8M368.4 102.3L346.6 173.3C346.6 173.3 342.6 186.3 353.8 189.5C364.8 192.8 368.1 180.1 368.1 180.1L385.8 120.9C385.8 120.9 386.8 116.3 390.1 117.3C393.5 118.3 392.1 123.1 392.1 123.1L361.7 234.1H390V313.6C390 321.1 396 327.2 403.7 327.2C411.2 327.2 417.3 321 417.3 313.5V234H425.1V313.5C425.1 321 431.3 327.1 438.9 327.1C446.5 327.1 452.5 320.9 452.5 313.4V233.9H481L450.4 122.9C450.4 122.9 449.1 118.1 452.4 117.1C455.9 116.1 456.9 120.7 456.9 120.7L474.3 179.9C474.3 179.9 477.7 192.5 488.6 189.3C499.6 186 495.8 173 495.8 173L473.8 102C473.8 102 466.1 81.5 448.8 81.5H393.3C376.1 81.5 368.3 102 368.3 102M692.3 189.3C704.3 189.3 714.1 179.6 714.1 167.5C714.1 155.5 704.4 145.7 692.3 145.7C680.2 145.7 670.5 155.5 670.5 167.5C670.5 179.5 680.3 189.5 692.3 189.5M640.2 257C639.2 259.6 638.2 265 643.4 267.3C649.4 270.1 652.8 264.3 652.8 264.3L664.8 226.5C664.8 226.5 666.8 224 666.8 226.5V316C666.8 322 671.8 327 678.1 327C684.4 327 689.4 322 689.4 316V280.7C689.4 280.7 688.8 275.7 692.8 275.7C696.8 275.7 696.2 280.7 696.2 280.7V316C696.2 322.2 701.4 327.2 707.5 327.2C713.6 327.2 718.7 322.2 718.7 316V227C718.7 224.3 720.1 226.2 720.1 226.2L729.3 252.2C729.3 252.2 733.3 263.6 734.6 264.2C738.8 265.9 743.6 263.9 745.4 259.7C746.6 256.9 746.1 254 744.4 251.7H744.6C744.4 250.7 730.6 217.3 729.1 212.7C724.1 198.3 715.1 198.4 706.6 198.2C698 198 692.8 198.2 692.8 198.2C692.8 198.2 687.3 198 675.8 198.2C664.6 198.7 661 204.5 648.4 236.8C646.6 241.5 640.6 256.5 640.4 257.4H640.6M185.7 55.8C201 55.8 213.4 43.4 213.4 28.1C213.4 13 201 0.5 185.7 0.5C170.4 0.5 158 12.8 158 28C158 43.4 170.4 55.8 185.7 55.8ZM218.2 66.3L216 66H155.4C154.6 66 154.1 66.2 153.4 66.3C134.6 68 120 84 120 103.3V180C120 184 122.2 187.6 125.6 189.4C125.6 189.7 125.3 190 125.3 190.4L100.7 320.7C100.2 322.9 101.7 325 103.9 325.4H104.5C106.5 325.4 108.1 324.2 108.5 322.2L133.2 192C133.2 191.4 133.2 191 133 190.4C137.7 189.2 141 185 141 180V114C141 111.6 141.7 108.3 146.2 108.3C149.2 108.3 150 111.6 150 113.7V311.2C150 319.7 157 326.6 165.5 326.6C174 326.6 181 319.6 181 311.2V197.4C181 196.1 181.7 193 185.7 193C189.7 193 190 196 190 197.3V311.3C190 319.7 197 326.6 205.5 326.6C214 326.6 221 319.6 221 311.2V113.6C221 111.6 221.7 108.2 224.8 108.2C229.4 108.2 230 111.6 230 114.2V180C230 186 235 190.7 241 190.7C247 190.7 252 185.7 252 179.9V103C252 83.7 237 67.8 218.2 66" fill="white"/>
<path fill-rule="evenodd" clip-rule="evenodd" d="M325.2 225.4L345.4 188.7C345.4 188.7 347.9 183.4 347.9 182.1C347.9 177.9 344.2 174.3 339.9 174.3C336.9 174.3 334.5 175.8 333.1 178C332.4 178.5 322.1 196.6 318.8 200C315.2 203.5 312 203 312 203H285.5C285.5 203 282.3 203.6 278.8 200C275.4 196.7 265.3 178.6 264.6 178C263.1 176 260.6 174.4 257.8 174.4C253.4 174.4 249.8 178 249.8 182.4C249.8 183.6 250.6 185.8 250.6 185.8L272.6 225.6C272.6 225.6 273.9 228.4 273.9 230.9V238.7L262.6 281H274V316C274 322 279 326.8 285 326.8C291 326.8 296 322.1 296 316.1V282.5C296 282.5 295.5 282.1 295.6 281.1H302.1V316C302.1 322 307.1 327 313.1 327C319.1 327 324.1 322 324.1 316V281H335.4L324 238.2V230.7C324 228.2 325.2 225.4 325.2 225.4" fill="white"/>
<path fill-rule="evenodd" clip-rule="evenodd" d="M299 189.3C311 189.3 320.7 179.6 320.7 167.5C320.7 155.5 311 145.7 298.9 145.7C286.8 145.7 276.9 155.5 276.9 167.5C276.9 179.5 286.7 189.5 298.9 189.5" fill="white"/>
</g>
<defs>
<clipPath id="clip0_600_14147">
<rect width="1000" height="327" fill="white"/>
</clipPath>
</defs>
</svg>
