<svg width="1000" height="460" viewBox="0 0 1000 460" fill="none" xmlns="http://www.w3.org/2000/svg">
<g clip-path="url(#clip0_600_14154)">
<path fill-rule="evenodd" clip-rule="evenodd" d="M413 438.7V452.7L412.8 453.1V453.8C413 457.3 415.8 460.1 419.4 460.1H585C588.5 460.1 591.4 457.1 591.4 453.4V437.4C684.4 407 753.8 331.6 769 240C769.3 239.7 769.3 239.5 769.3 239.4V238.4C769.3 234.7 766.3 231.8 762.7 231.8H237C233.2 231.8 230.2 234.8 230.2 238.4L230.6 241.4C246.6 334 318 409.7 413 439M591 6.99998C589 9.99998 538 83.2 592.2 142.3C617 169.5 614.8 193.3 607.8 209.6H642.5C649.5 185.6 646.5 155.6 618.5 125C578.5 81.4 618.9 22.5 619.5 21.6C624.5 15 622 6.39998 614 2.39998C606.2 -1.60002 596 0.399976 591.2 7.19998M503.4 209.8H538C545 185.8 542.2 156 514 125.2C474 81.6 514.5 22.7 515 21.8C520 15.1 517.3 6.39998 509.5 2.39998C501.5 -1.60002 491.5 0.399976 486.7 7.19998C484.5 10.2 433.7 83.4 487.7 142.5C512.7 169.7 510.4 193.5 503.4 209.8M382 7.19998C379.8 10.2 329 83.4 383.2 142.5C408 169.7 405.8 193.5 398.8 209.8H433.5C440.5 185.8 437.5 156 409.5 125.2C369.5 81.6 409.9 22.7 410.5 21.8C415.2 15.1 412.7 6.39998 404.9 2.39998C396.9 -1.60002 386.4 0.399976 381.9 7.19998" fill="white"/>
</g>
<defs>
<clipPath id="clip0_600_14154">
<rect width="1000" height="460" fill="white"/>
</clipPath>
</defs>
</svg>
