<svg width="1000" height="470" viewBox="0 0 1000 470" fill="none" xmlns="http://www.w3.org/2000/svg">
<path fill-rule="evenodd" clip-rule="evenodd" d="M836 249C836 220.8 817.8 198 790.5 198C776.8 198 760.3 213 751.5 222.2C742.5 213 727 198 713.3 198C686 198 666.8 220.8 666.8 249C666.8 263 672.4 275.8 681.3 285L751.3 355.2L821.3 285C830.3 275.8 835.9 263 835.9 249" fill="white"/>
<path fill-rule="evenodd" clip-rule="evenodd" d="M537.4 470C537.2 470 537 470 536.7 469.8C531.4 469.5 527 465.6 526.1 460.3L490.6 253L436.6 353C434.3 357.3 429.3 359.7 424.6 358.8C419.6 357.8 415.8 354 415.1 349.1L392.1 189.1L350.3 283.1C348.5 287.4 344.3 290.1 339.8 290.1H177C170.5 290.1 165.3 284.9 165.3 278.5C165.3 272.2 170.5 267 176.9 267H332L387 143.2C389.2 138.5 394 135.8 399.2 136.5C404.2 137.2 408.2 141.2 409 146.2L432.6 311.2L485.8 212.6C488.2 208.3 493 205.9 497.8 206.6C502.8 207.6 506.5 211.3 507.3 216.2L540.3 408.2L660.7 8.99995C662.1 4.49995 666.1 1.19995 670.7 0.799948C675.7 0.499948 680 3.09995 682.1 7.29995L745.4 138.3C748.2 144.1 745.8 151 740.1 153.8C734.4 156.5 727.5 154.1 724.7 148.4L674.2 43.9999L548.4 461.7C547 466.7 542.4 469.9 537.4 469.9" fill="white"/>
</svg>
