<svg width="1000" height="510" viewBox="0 0 1000 510" fill="none" xmlns="http://www.w3.org/2000/svg">
<path fill-rule="evenodd" clip-rule="evenodd" d="M659.2 79C649.2 74.7 636.9 76.2 624.9 81C579.9 99.3 548.9 106 501.9 91C471.9 81.7 443.9 62.2 410.9 74C388.9 82 368.3 89.5 343.9 89.3L330 16H669.4L659.2 79V79ZM544.2 296.5C544.2 296.5 527.6 313.5 500.8 311.5C473.8 313.5 457.5 296.5 457.5 296.5C430.3 269.5 440 235.5 449.5 218.1C455.3 207.8 497 145.1 500.5 139.8V139.3H500.8V139.7C504.4 145 546.3 207.7 552.1 218.7C562.1 236.1 571.9 269.9 544.1 297L544.2 296.5ZM684.2 1.5C683.5 0.5 682.2 0 681 0H318.2C317 0 315.8 0.5 315 1.4C314.2 2.4 314 3.7 314 4.9L375 372.9C375.3 374.9 377 376.3 379.2 376.3H454L459 436.3H427.6L501 510L574 437H542.5L547.5 377H624C626.2 377 628 375.4 628.2 373.3L685.2 5C685.5 3.6 685.2 2.4 684.2 1.4V1.5Z" fill="white"/>
</svg>
