<svg width="1000" height="513" viewBox="0 0 1000 513" fill="none" xmlns="http://www.w3.org/2000/svg">
<g clip-path="url(#clip0_600_14229)">
<path fill-rule="evenodd" clip-rule="evenodd" d="M737.6 429.2L631 490.8V367.6L737.5 306V429.2H737.6ZM385 490.8V377L483.7 434L385.1 490.8H385ZM369 490.8L262 429.2V306L369 367.6V490.8ZM483.6 150L385 207V93L483.7 150H483.6ZM614.6 207L516 150L614.6 93V207ZM516 292L622.7 230.4L729.5 292L622.8 353.6L516.2 292H516ZM491.7 278L393 221L491.7 164V278ZM606.5 221L508 278V164L606.6 221H606.5ZM491.8 420L393.2 363L491.8 306V419.8V420ZM749.8 285L630.8 216.3V79C630.8 76.2 629.4 73.5 626.8 72L504 0.999951C501.5 -0.400049 498.4 -0.400049 496 0.999951L373 72C370.5 73.5 369 76.2 369 79V216.3L250 285C247.6 286.4 246 289 246 292V434C246 436.8 247.6 439.5 250 441L373 512C374.2 512.6 375.6 513 377 513C378.4 513 379.8 512.6 381 512L500 443.3L618.7 512C619.9 512.6 621.3 513 622.7 513C624.1 513 625.5 512.6 626.7 512L749.7 441C752.2 439.5 753.7 436.8 753.7 434V292C753.7 289 752.2 286.4 749.7 285H749.8Z" fill="white"/>
</g>
<defs>
<clipPath id="clip0_600_14229">
<rect width="1000" height="513" fill="white"/>
</clipPath>
</defs>
</svg>
