<svg width="1000" height="547" viewBox="0 0 1000 547" fill="none" xmlns="http://www.w3.org/2000/svg">
<path fill-rule="evenodd" clip-rule="evenodd" d="M595 304H403L401 306V364L403 366H595L597 364V306L595 304ZM595 181H403C402 181 401 182 401 184V241C401 243 402 244 403 244H595C596 244 597 243 597 241V184C597 182 596 181 595 181ZM592 94L500 2H498L406 94C405 95 406 97 407 97H591C593 97 593 95 592 94ZM679 367L771 275V273L679 181C678 180 676 180 676 182V366C676 367 678 368 679 367ZM406 453L498 545H500L592 453C593 452 593 451 591 451H407C406 451 405 452 406 453ZM320 181L227 273V275L320 367C321 368 322 367 322 366V182C322 180 321 180 320 181Z" fill="white"/>
</svg>
