<svg width="1000" height="377" viewBox="0 0 1000 377" fill="none" xmlns="http://www.w3.org/2000/svg">
<g clip-path="url(#clip0_600_14152)">
<path fill-rule="evenodd" clip-rule="evenodd" d="M651.4 221C647.2 219.8 629.9 196 643.6 180C645.9 177.5 639 170 640.9 169.7C648.3 169.2 652.2 173.7 654.2 180.5L654.5 189.5C654.5 200.3 653.5 210.8 651.3 221M609 299C607.5 298.4 606 298 604.2 297C595.8 292.8 596.8 299.6 592.7 298C588.5 296.6 597.3 287 584.9 295C572.4 303.2 575.9 293.8 570.4 280C564.9 266.4 576.6 250.7 586.4 247C599.7 242.3 608.1 241.3 614.4 239.7C632.9 235.1 636.8 224.1 640.2 230.7L642 234.4C643.2 236.4 644.4 240.4 644.5 244.4C636.5 265.1 624.5 283.6 609.1 298.9M500.3 343.7C485.3 343.7 470.7 341.5 457 337.5C455 335.9 453.7 333.2 455 329.9C459.8 317.5 474 312.6 485.2 311.5C510.2 309.1 543.2 327.8 548.4 324.8C553.6 321.6 564.2 307.8 579.7 308.5C590.3 308.9 590.2 310.7 593.7 312C567.7 331.8 535.4 343.6 500.2 343.6M479.2 243C477.2 246.5 471.2 272.4 467.4 269.4C463.4 266.4 469 239.4 470.1 237.2C476.3 226.2 489.5 226.6 479.3 243M542.3 212.4C539.3 215.1 531.5 214.1 527.6 211C523.6 208 530.1 203 532.4 202.8C537.6 202.4 545.4 209.6 542.4 212.4M610.4 212.6C608.8 212 607.4 210.4 606.1 206.6C604.8 202.9 608.1 200.6 611.1 202.2C614.3 203.8 618.4 208.5 618.4 211.2C618.4 213.6 612.2 213.2 610.4 212.6ZM617.1 217.4C622.1 217 630.1 224.1 627.1 226.9C623.9 229.7 616.1 228.7 612.3 225.7C608.3 222.7 614.7 217.7 617.1 217.5M451.4 279C448.4 291 444.9 295.2 441.9 299C438.9 302.6 427.9 307.4 420.9 307C413.7 306.4 412.9 287.7 412.9 278C412.9 274.7 408.1 284.6 405.6 264.5C404 251.7 395.8 265.9 395.2 257.3C394.6 248.8 390.5 250.5 386.2 245.1C381.9 239.9 376.5 245.7 370.5 248.4C364.5 251.1 367 252.4 358.5 249.8C358.2 249.8 358.1 249.8 357.9 249.6C350.1 231.2 345.9 210.9 345.9 189.6C345.9 184.3 346.1 179.2 346.5 174.2L347.5 172.8C355.7 163.2 355.5 160.8 355.5 160.8L364.5 157.8C364.5 157.8 378.9 160 389.8 164.1C398.6 167.3 412.8 174.9 420.8 171.6C426.8 169.1 431.5 165.9 430.8 161C430.3 154.7 425.4 153.2 419.5 157.4C417.3 158.9 412.7 148.1 409 148.6C405.4 149.2 413.5 161.4 410.4 161.9C407.4 162.3 401.1 149.1 400.1 146.9C399.1 144.9 394.1 139.4 389.9 143.5C380.9 152.2 366.1 151.5 363.2 153.9C354.2 160.6 351.7 151.6 351.9 146.2L353.1 142.4C356.1 139.2 366.6 138.1 370.3 140.4C374.3 143.2 377.1 139.8 378.7 138.2C380.3 136.6 379.7 134.2 378.7 131.9C377.7 129.9 380.7 128.2 382.7 127.7C384.7 127.1 391.7 122.3 394.5 120.7C397.2 119.1 411.5 117.4 417.9 120.7C424.3 123.7 430.2 121.1 433.3 117.4C437.3 112.8 442.3 109.2 444.5 108.1C446.7 107.1 439 99.8 432.5 107.7C426.2 115.7 423 116.3 420 116.3C417 116.3 399.3 111.8 397 106.3C395 100.6 402.6 96.3 409.2 93.3C415.8 90.1 433.8 90.1 438.4 89.1C447.7 87.1 459.7 82.3 465.7 86.4C471.7 90.4 440.7 97.4 450.7 103.1C454.5 105.1 470.9 93.6 476.7 90.7C489.7 83.7 463.7 81.5 467.1 67.7C471.1 51.9 435.1 58 417.1 59.3C441 44 469.7 35 500.3 35C573.1 35 634.1 85.5 650.3 153.4C650.5 156.7 650 159.1 649.6 160.4C648.2 166.1 637.6 170.8 631.6 161.9C630 159.5 623.4 153.3 623.6 163.9C623.8 174.7 634 175.9 624.1 182.2C614.3 188.6 612.5 187.2 607.9 188.7C603.4 190.3 598.9 201.3 600.1 207.2C601.1 213.2 615.1 229.2 604.8 228.5C602.3 228.3 583.8 215.7 580.8 207.5C577.6 199.1 574.1 190.8 571.6 184.3C569.1 177.9 562.6 176.3 557.1 180.1C551.6 183.8 558.6 187.6 554.7 195.6C550.7 203.6 547.9 210.8 542.1 204.2C527.1 186.9 505.1 195.4 501.7 176.2C499.9 165.8 490.9 166.8 483.4 160.9C475.9 154.9 471.7 151.9 470.4 156.1C469.4 159.8 494 179.4 495.8 184.4C498.4 191.9 488.4 198.4 481 200.2C473.6 202 470.4 196.2 463.2 188.6C456 181.1 452.9 175.8 452.4 181.6C451.7 190.2 459.2 202.6 466.4 207.3C472.8 211.3 479.8 213 477.8 219.5C475.8 225.9 477.8 222.3 470.8 229.2C463.8 236.2 462.4 238.4 462.8 248C463.4 257.7 460.8 258.3 459.4 266.3C457.9 274.3 454.4 267.3 451.4 279.1M368.4 109.1L369.4 108.1C372.1 105.1 377.6 104.3 381.4 103.7C385.4 103.1 390.4 105 391 107.7C391.7 110.1 381.4 114.7 379.5 116.5C374.2 121.5 365.8 131.5 361 132.5C359.4 132.9 358 132.5 357 132.1C360.2 124.1 364 116.4 368.5 109.1M376.5 93.4C378.5 90.4 385 82.1 385.8 81C387.5 78.7 390.8 78.3 393.3 78C395.6 77.4 398.8 78.7 399.3 80.5C399.6 82.3 398.3 89.1 397.1 90.3C393.9 93.7 385.5 98.3 380.8 97.7C377.2 97.1 375.8 94.4 376.5 93.3M867 184.5C840.7 147.5 721.5 0 500 0C278.4 0 159.3 147.5 133 184.5L130 188.5C130.8 189.8 131.8 191.1 133 192.7C159.3 229.7 278.4 377.2 500 377.2C721.5 377.2 840.7 229.7 867 192.7C868.2 191.1 869 189.7 870 188.7L867 184.5Z" fill="white"/>
</g>
<defs>
<clipPath id="clip0_600_14152">
<rect width="1000" height="377" fill="white"/>
</clipPath>
</defs>
</svg>
