<svg width="353" height="333" viewBox="0 0 353 333" fill="none" xmlns="http://www.w3.org/2000/svg">
<path d="M66.0856 322.378C65.8456 323.542 65.2456 324.484 64.2856 325.204C63.3256 325.924 62.1736 326.284 60.8296 326.284C59.0896 326.284 57.6796 325.69 56.5996 324.502C55.5316 323.302 54.9976 321.76 54.9976 319.876C54.9976 317.968 55.5316 316.402 56.5996 315.178C57.6676 313.942 59.0716 313.324 60.8116 313.324C62.1196 313.324 63.2356 313.684 64.1596 314.404C65.0836 315.112 65.6596 316.09 65.8876 317.338H64.5736C64.3576 316.462 63.9196 315.772 63.2596 315.268C62.6116 314.752 61.8076 314.494 60.8476 314.494C59.4676 314.494 58.3576 315.01 57.5176 316.042C56.6776 317.074 56.2576 318.352 56.2576 319.876C56.2576 321.4 56.6776 322.654 57.5176 323.638C58.3696 324.622 59.4736 325.114 60.8296 325.114C61.8016 325.114 62.6356 324.868 63.3316 324.376C64.0276 323.872 64.5076 323.206 64.7716 322.378H66.0856ZM75.6277 325.15H75.8617V326.104H75.2677C74.4157 326.104 73.9237 325.708 73.7917 324.916C73.0957 325.828 72.0997 326.284 70.8037 326.284C69.9517 326.284 69.2557 326.074 68.7157 325.654C68.1877 325.222 67.9237 324.586 67.9237 323.746C67.9237 322.93 68.2057 322.288 68.7697 321.82C69.3457 321.352 70.1077 321.076 71.0557 320.992L73.6837 320.74V320.146C73.6837 319.474 73.5037 318.94 73.1437 318.544C72.7957 318.148 72.2797 317.95 71.5957 317.95C70.4197 317.95 69.7177 318.58 69.4897 319.84H68.2837C68.3797 318.976 68.7157 318.274 69.2917 317.734C69.8797 317.194 70.6477 316.924 71.5957 316.924C72.6037 316.924 73.4017 317.206 73.9897 317.77C74.5897 318.334 74.8897 319.114 74.8897 320.11V324.376C74.8897 324.892 75.1357 325.15 75.6277 325.15ZM73.6837 322.666V321.676L71.3797 321.892C70.6957 321.952 70.1497 322.138 69.7417 322.45C69.3337 322.762 69.1297 323.188 69.1297 323.728C69.1297 324.256 69.2977 324.646 69.6337 324.898C69.9697 325.15 70.4017 325.276 70.9297 325.276C71.6737 325.276 72.3157 325.06 72.8557 324.628C73.4077 324.196 73.6837 323.542 73.6837 322.666ZM77.763 326.104V313.324H78.969V326.104H77.763ZM82.8186 315.268C82.6626 315.436 82.4646 315.52 82.2246 315.52C81.9846 315.52 81.7746 315.436 81.5946 315.268C81.4266 315.1 81.3426 314.896 81.3426 314.656C81.3426 314.428 81.4266 314.23 81.5946 314.062C81.7746 313.894 81.9846 313.81 82.2246 313.81C82.4526 313.81 82.6506 313.894 82.8186 314.062C82.9866 314.218 83.0706 314.416 83.0706 314.656C83.0706 314.896 82.9866 315.1 82.8186 315.268ZM81.6126 326.104V317.104H82.8186V326.104H81.6126ZM92.177 313.324H93.383V326.104H92.393L92.267 324.718H92.159C91.463 325.762 90.467 326.284 89.171 326.284C87.959 326.284 86.975 325.852 86.219 324.988C85.463 324.124 85.085 322.99 85.085 321.586C85.085 320.182 85.463 319.054 86.219 318.202C86.987 317.35 87.971 316.924 89.171 316.924C90.539 316.924 91.541 317.446 92.177 318.49V313.324ZM89.279 325.204C90.155 325.204 90.857 324.874 91.385 324.214C91.913 323.554 92.177 322.678 92.177 321.586C92.177 320.506 91.913 319.642 91.385 318.994C90.857 318.334 90.155 318.004 89.279 318.004C88.391 318.004 87.665 318.334 87.101 318.994C86.549 319.654 86.273 320.518 86.273 321.586C86.273 322.666 86.549 323.542 87.101 324.214C87.665 324.874 88.391 325.204 89.279 325.204ZM103.384 325.15H103.618V326.104H103.024C102.172 326.104 101.68 325.708 101.548 324.916C100.852 325.828 99.8556 326.284 98.5596 326.284C97.7076 326.284 97.0116 326.074 96.4716 325.654C95.9436 325.222 95.6796 324.586 95.6796 323.746C95.6796 322.93 95.9616 322.288 96.5256 321.82C97.1016 321.352 97.8636 321.076 98.8116 320.992L101.44 320.74V320.146C101.44 319.474 101.26 318.94 100.9 318.544C100.552 318.148 100.036 317.95 99.3516 317.95C98.1756 317.95 97.4736 318.58 97.2456 319.84H96.0396C96.1356 318.976 96.4716 318.274 97.0476 317.734C97.6356 317.194 98.4036 316.924 99.3516 316.924C100.36 316.924 101.158 317.206 101.746 317.77C102.346 318.334 102.646 319.114 102.646 320.11V324.376C102.646 324.892 102.892 325.15 103.384 325.15ZM101.44 322.666V321.676L99.1356 321.892C98.4516 321.952 97.9056 322.138 97.4976 322.45C97.0896 322.762 96.8856 323.188 96.8856 323.728C96.8856 324.256 97.0536 324.646 97.3896 324.898C97.7256 325.15 98.1576 325.276 98.6856 325.276C99.4296 325.276 100.072 325.06 100.612 324.628C101.164 324.196 101.44 323.542 101.44 322.666ZM112.075 313.324H113.281V326.104H112.291L112.165 324.718H112.057C111.361 325.762 110.365 326.284 109.069 326.284C107.857 326.284 106.873 325.852 106.117 324.988C105.361 324.124 104.983 322.99 104.983 321.586C104.983 320.182 105.361 319.054 106.117 318.202C106.885 317.35 107.869 316.924 109.069 316.924C110.437 316.924 111.439 317.446 112.075 318.49V313.324ZM109.177 325.204C110.053 325.204 110.755 324.874 111.283 324.214C111.811 323.554 112.075 322.678 112.075 321.586C112.075 320.506 111.811 319.642 111.283 318.994C110.755 318.334 110.053 318.004 109.177 318.004C108.289 318.004 107.563 318.334 106.999 318.994C106.447 319.654 106.171 320.518 106.171 321.586C106.171 322.666 106.447 323.542 106.999 324.214C107.563 324.874 108.289 325.204 109.177 325.204ZM127.65 313.324H128.856V326.104H127.866L127.74 324.718H127.632C126.936 325.762 125.94 326.284 124.644 326.284C123.432 326.284 122.448 325.852 121.692 324.988C120.936 324.124 120.558 322.99 120.558 321.586C120.558 320.182 120.936 319.054 121.692 318.202C122.46 317.35 123.444 316.924 124.644 316.924C126.012 316.924 127.014 317.446 127.65 318.49V313.324ZM124.752 325.204C125.628 325.204 126.33 324.874 126.858 324.214C127.386 323.554 127.65 322.678 127.65 321.586C127.65 320.506 127.386 319.642 126.858 318.994C126.33 318.334 125.628 318.004 124.752 318.004C123.864 318.004 123.138 318.334 122.574 318.994C122.022 319.654 121.746 320.518 121.746 321.586C121.746 322.666 122.022 323.542 122.574 324.214C123.138 324.874 123.864 325.204 124.752 325.204ZM139.186 321.37C139.186 321.562 139.174 321.724 139.15 321.856H132.328C132.364 322.888 132.652 323.716 133.192 324.34C133.744 324.952 134.464 325.258 135.352 325.258C136 325.258 136.546 325.12 136.99 324.844C137.446 324.556 137.758 324.142 137.926 323.602H139.096C138.904 324.454 138.472 325.114 137.8 325.582C137.128 326.05 136.312 326.284 135.352 326.284C134.104 326.284 133.09 325.864 132.31 325.024C131.53 324.184 131.14 323.074 131.14 321.694C131.14 320.254 131.53 319.102 132.31 318.238C133.09 317.362 134.086 316.924 135.298 316.924C136.426 316.924 137.356 317.314 138.088 318.094C138.82 318.874 139.186 319.966 139.186 321.37ZM135.298 317.95C134.482 317.95 133.804 318.232 133.264 318.796C132.724 319.36 132.418 320.068 132.346 320.92H137.998C137.986 320.032 137.728 319.318 137.224 318.778C136.732 318.226 136.09 317.95 135.298 317.95ZM148.941 326.104L145.521 317.104H146.781L149.643 324.844H149.751L152.631 317.104H153.891L150.471 326.104H148.941ZM156.822 315.268C156.666 315.436 156.468 315.52 156.228 315.52C155.988 315.52 155.778 315.436 155.598 315.268C155.43 315.1 155.346 314.896 155.346 314.656C155.346 314.428 155.43 314.23 155.598 314.062C155.778 313.894 155.988 313.81 156.228 313.81C156.456 313.81 156.654 313.894 156.822 314.062C156.99 314.218 157.074 314.416 157.074 314.656C157.074 314.896 156.99 315.1 156.822 315.268ZM155.616 326.104V317.104H156.822V326.104H155.616ZM166.181 313.324H167.387V326.104H166.397L166.271 324.718H166.163C165.467 325.762 164.471 326.284 163.175 326.284C161.963 326.284 160.979 325.852 160.223 324.988C159.467 324.124 159.089 322.99 159.089 321.586C159.089 320.182 159.467 319.054 160.223 318.202C160.991 317.35 161.975 316.924 163.175 316.924C164.543 316.924 165.545 317.446 166.181 318.49V313.324ZM163.283 325.204C164.159 325.204 164.861 324.874 165.389 324.214C165.917 323.554 166.181 322.678 166.181 321.586C166.181 320.506 165.917 319.642 165.389 318.994C164.861 318.334 164.159 318.004 163.283 318.004C162.395 318.004 161.669 318.334 161.105 318.994C160.553 319.654 160.277 320.518 160.277 321.586C160.277 322.666 160.553 323.542 161.105 324.214C161.669 324.874 162.395 325.204 163.283 325.204ZM177.549 325.258C177.741 325.258 177.969 325.204 178.233 325.096V326.014C177.897 326.134 177.579 326.194 177.279 326.194C176.847 326.194 176.475 326.086 176.163 325.87C175.851 325.642 175.659 325.312 175.587 324.88C174.927 325.816 173.919 326.284 172.563 326.284C171.711 326.284 171.015 326.074 170.475 325.654C169.947 325.222 169.683 324.586 169.683 323.746C169.683 322.93 169.965 322.288 170.529 321.82C171.105 321.352 171.867 321.076 172.815 320.992L175.443 320.74V320.146C175.443 319.474 175.263 318.94 174.903 318.544C174.555 318.148 174.039 317.95 173.355 317.95C172.179 317.95 171.477 318.58 171.249 319.84H170.043C170.139 318.976 170.475 318.274 171.051 317.734C171.639 317.194 172.407 316.924 173.355 316.924C174.363 316.924 175.161 317.206 175.749 317.77C176.349 318.334 176.649 319.114 176.649 320.11V324.25C176.649 324.922 176.949 325.258 177.549 325.258ZM175.443 322.666V321.676L173.139 321.892C172.455 321.952 171.909 322.138 171.501 322.45C171.093 322.762 170.889 323.188 170.889 323.728C170.889 324.256 171.057 324.646 171.393 324.898C171.729 325.15 172.161 325.276 172.689 325.276C173.433 325.276 174.075 325.06 174.615 324.628C175.167 324.196 175.443 323.542 175.443 322.666ZM191.195 313.324H192.401V326.104H191.411L191.285 324.718H191.177C190.481 325.762 189.485 326.284 188.189 326.284C186.977 326.284 185.993 325.852 185.237 324.988C184.481 324.124 184.103 322.99 184.103 321.586C184.103 320.182 184.481 319.054 185.237 318.202C186.005 317.35 186.989 316.924 188.189 316.924C189.557 316.924 190.559 317.446 191.195 318.49V313.324ZM188.297 325.204C189.173 325.204 189.875 324.874 190.403 324.214C190.931 323.554 191.195 322.678 191.195 321.586C191.195 320.506 190.931 319.642 190.403 318.994C189.875 318.334 189.173 318.004 188.297 318.004C187.409 318.004 186.683 318.334 186.119 318.994C185.567 319.654 185.291 320.518 185.291 321.586C185.291 322.666 185.567 323.542 186.119 324.214C186.683 324.874 187.409 325.204 188.297 325.204ZM202.731 321.37C202.731 321.562 202.719 321.724 202.695 321.856H195.873C195.909 322.888 196.197 323.716 196.737 324.34C197.289 324.952 198.009 325.258 198.897 325.258C199.545 325.258 200.091 325.12 200.535 324.844C200.991 324.556 201.303 324.142 201.471 323.602H202.641C202.449 324.454 202.017 325.114 201.345 325.582C200.673 326.05 199.857 326.284 198.897 326.284C197.649 326.284 196.635 325.864 195.855 325.024C195.075 324.184 194.685 323.074 194.685 321.694C194.685 320.254 195.075 319.102 195.855 318.238C196.635 317.362 197.631 316.924 198.843 316.924C199.971 316.924 200.901 317.314 201.633 318.094C202.365 318.874 202.731 319.966 202.731 321.37ZM198.843 317.95C198.027 317.95 197.349 318.232 196.809 318.796C196.269 319.36 195.963 320.068 195.891 320.92H201.543C201.531 320.032 201.273 319.318 200.769 318.778C200.277 318.226 199.635 317.95 198.843 317.95ZM210.038 326.104V313.324H211.244V326.104H210.038ZM221.389 325.258C221.581 325.258 221.809 325.204 222.073 325.096V326.014C221.737 326.134 221.419 326.194 221.119 326.194C220.687 326.194 220.315 326.086 220.003 325.87C219.691 325.642 219.499 325.312 219.427 324.88C218.767 325.816 217.759 326.284 216.403 326.284C215.551 326.284 214.855 326.074 214.315 325.654C213.787 325.222 213.523 324.586 213.523 323.746C213.523 322.93 213.805 322.288 214.369 321.82C214.945 321.352 215.707 321.076 216.655 320.992L219.283 320.74V320.146C219.283 319.474 219.103 318.94 218.743 318.544C218.395 318.148 217.879 317.95 217.195 317.95C216.019 317.95 215.317 318.58 215.089 319.84H213.883C213.979 318.976 214.315 318.274 214.891 317.734C215.479 317.194 216.247 316.924 217.195 316.924C218.203 316.924 219.001 317.206 219.589 317.77C220.189 318.334 220.489 319.114 220.489 320.11V324.25C220.489 324.922 220.789 325.258 221.389 325.258ZM219.283 322.666V321.676L216.979 321.892C216.295 321.952 215.749 322.138 215.341 322.45C214.933 322.762 214.729 323.188 214.729 323.728C214.729 324.256 214.897 324.646 215.233 324.898C215.569 325.15 216.001 325.276 216.529 325.276C217.273 325.276 217.915 325.06 218.455 324.628C219.007 324.196 219.283 323.542 219.283 322.666ZM232.496 316.924C233.708 316.924 234.692 317.356 235.448 318.22C236.204 319.084 236.582 320.218 236.582 321.622C236.582 323.026 236.198 324.154 235.43 325.006C234.674 325.858 233.696 326.284 232.496 326.284C231.128 326.284 230.126 325.762 229.49 324.718V329.704H228.284V317.104H229.292L229.4 318.49H229.508C230.204 317.446 231.2 316.924 232.496 316.924ZM232.388 325.204C233.276 325.204 233.996 324.874 234.548 324.214C235.112 323.554 235.394 322.69 235.394 321.622C235.394 320.542 235.112 319.672 234.548 319.012C233.996 318.34 233.276 318.004 232.388 318.004C231.512 318.004 230.81 318.334 230.282 318.994C229.754 319.654 229.49 320.53 229.49 321.622C229.49 322.702 229.754 323.572 230.282 324.232C230.81 324.88 231.512 325.204 232.388 325.204ZM245.978 324.952C245.15 325.84 244.1 326.284 242.828 326.284C241.556 326.284 240.506 325.84 239.678 324.952C238.862 324.052 238.454 322.936 238.454 321.604C238.454 320.26 238.862 319.144 239.678 318.256C240.506 317.368 241.556 316.924 242.828 316.924C244.088 316.924 245.138 317.374 245.978 318.274C246.818 319.162 247.238 320.272 247.238 321.604C247.238 322.948 246.818 324.064 245.978 324.952ZM242.828 325.204C243.776 325.204 244.544 324.856 245.132 324.16C245.732 323.464 246.032 322.612 246.032 321.604C246.032 320.596 245.732 319.744 245.132 319.048C244.532 318.352 243.764 318.004 242.828 318.004C241.88 318.004 241.112 318.352 240.524 319.048C239.936 319.744 239.642 320.596 239.642 321.604C239.642 322.612 239.936 323.464 240.524 324.16C241.124 324.856 241.892 325.204 242.828 325.204ZM253.731 316.924C254.931 316.924 255.909 317.35 256.665 318.202C257.433 319.054 257.817 320.182 257.817 321.586C257.817 322.99 257.439 324.124 256.683 324.988C255.927 325.852 254.943 326.284 253.731 326.284C252.435 326.284 251.439 325.762 250.743 324.718H250.635L250.527 326.104H249.519V313.324H250.725V318.49C251.361 317.446 252.363 316.924 253.731 316.924ZM253.623 325.204C254.511 325.204 255.231 324.874 255.783 324.214C256.347 323.542 256.629 322.666 256.629 321.586C256.629 320.518 256.347 319.654 255.783 318.994C255.231 318.334 254.511 318.004 253.623 318.004C252.747 318.004 252.045 318.334 251.517 318.994C250.989 319.642 250.725 320.506 250.725 321.586C250.725 322.678 250.989 323.554 251.517 324.214C252.045 324.874 252.747 325.204 253.623 325.204ZM260.118 326.104V313.324H261.324V326.104H260.118ZM271.307 325.15H271.541V326.104H270.947C270.095 326.104 269.603 325.708 269.471 324.916C268.775 325.828 267.779 326.284 266.483 326.284C265.631 326.284 264.935 326.074 264.395 325.654C263.867 325.222 263.603 324.586 263.603 323.746C263.603 322.93 263.885 322.288 264.449 321.82C265.025 321.352 265.787 321.076 266.735 320.992L269.363 320.74V320.146C269.363 319.474 269.183 318.94 268.823 318.544C268.475 318.148 267.959 317.95 267.275 317.95C266.099 317.95 265.397 318.58 265.169 319.84H263.963C264.059 318.976 264.395 318.274 264.971 317.734C265.559 317.194 266.327 316.924 267.275 316.924C268.283 316.924 269.081 317.206 269.669 317.77C270.269 318.334 270.569 319.114 270.569 320.11V324.376C270.569 324.892 270.815 325.15 271.307 325.15ZM269.363 322.666V321.676L267.059 321.892C266.375 321.952 265.829 322.138 265.421 322.45C265.013 322.762 264.809 323.188 264.809 323.728C264.809 324.256 264.977 324.646 265.313 324.898C265.649 325.15 266.081 325.276 266.609 325.276C267.353 325.276 267.995 325.06 268.535 324.628C269.087 324.196 269.363 323.542 269.363 322.666ZM277.245 326.284C275.925 326.284 274.869 325.846 274.077 324.97C273.297 324.094 272.907 322.99 272.907 321.658C272.907 320.302 273.309 319.174 274.113 318.274C274.929 317.374 275.973 316.924 277.245 316.924C278.253 316.924 279.117 317.2 279.837 317.752C280.557 318.304 280.995 319.06 281.151 320.02H279.945C279.813 319.444 279.507 318.964 279.027 318.58C278.547 318.196 277.953 318.004 277.245 318.004C276.321 318.004 275.565 318.352 274.977 319.048C274.389 319.744 274.095 320.614 274.095 321.658C274.095 322.666 274.377 323.512 274.941 324.196C275.517 324.868 276.285 325.204 277.245 325.204C277.965 325.204 278.553 325.036 279.009 324.7C279.465 324.352 279.789 323.878 279.981 323.278H281.205C281.013 324.19 280.563 324.922 279.855 325.474C279.147 326.014 278.277 326.284 277.245 326.284ZM284.545 315.268C284.389 315.436 284.191 315.52 283.951 315.52C283.711 315.52 283.501 315.436 283.321 315.268C283.153 315.1 283.069 314.896 283.069 314.656C283.069 314.428 283.153 314.23 283.321 314.062C283.501 313.894 283.711 313.81 283.951 313.81C284.179 313.81 284.377 313.894 284.545 314.062C284.713 314.218 284.797 314.416 284.797 314.656C284.797 314.896 284.713 315.1 284.545 315.268ZM283.339 326.104V317.104H284.545V326.104H283.339ZM291.888 313.504H293.004L291.708 316.114H290.7L291.888 313.504ZM294.336 324.952C293.508 325.84 292.458 326.284 291.186 326.284C289.914 326.284 288.864 325.84 288.036 324.952C287.22 324.052 286.812 322.936 286.812 321.604C286.812 320.26 287.22 319.144 288.036 318.256C288.864 317.368 289.914 316.924 291.186 316.924C292.446 316.924 293.496 317.374 294.336 318.274C295.176 319.162 295.596 320.272 295.596 321.604C295.596 322.948 295.176 324.064 294.336 324.952ZM291.186 325.204C292.134 325.204 292.902 324.856 293.49 324.16C294.09 323.464 294.39 322.612 294.39 321.604C294.39 320.596 294.09 319.744 293.49 319.048C292.89 318.352 292.122 318.004 291.186 318.004C290.238 318.004 289.47 318.352 288.882 319.048C288.294 319.744 288 320.596 288 321.604C288 322.612 288.294 323.464 288.882 324.16C289.482 324.856 290.25 325.204 291.186 325.204ZM297.859 326.104V317.104H298.939L299.065 318.184H299.173C299.773 317.344 300.637 316.924 301.765 316.924C302.701 316.924 303.463 317.218 304.051 317.806C304.639 318.394 304.933 319.234 304.933 320.326V326.104H303.727V320.614C303.727 319.738 303.523 319.084 303.115 318.652C302.707 318.22 302.179 318.004 301.531 318.004C300.823 318.004 300.235 318.238 299.767 318.706C299.299 319.174 299.065 319.876 299.065 320.812V326.104H297.859Z" fill="white"/>
<path d="M7.4 284.478C7.4 283.326 7.736 282.402 8.408 281.706C9.08 281.01 9.968 280.662 11.072 280.662C12.224 280.662 13.136 281.022 13.808 281.742C14.468 282.45 14.798 283.41 14.798 284.622L14.798 287.682L20 287.682L20 288.888L7.4 288.888L7.4 284.478ZM13.664 284.712C13.664 283.836 13.436 283.152 12.98 282.66C12.524 282.168 11.894 281.922 11.09 281.922C10.274 281.922 9.644 282.168 9.2 282.66C8.756 283.152 8.534 283.788 8.534 284.568L8.534 287.682L13.664 287.682L13.664 284.712ZM20 278.384L11 278.384L11 277.322L12.224 277.178L12.224 277.07C11.288 276.554 10.82 275.72 10.82 274.568L10.82 274.1L12.044 274.1C12.02 274.268 12.008 274.514 12.008 274.838C12.008 275.522 12.278 276.086 12.818 276.53C13.346 276.962 14.078 277.178 15.014 277.178L20 277.178L20 278.384ZM18.848 265.665C19.736 266.493 20.18 267.543 20.18 268.815C20.18 270.087 19.736 271.137 18.848 271.965C17.948 272.781 16.832 273.189 15.5 273.189C14.156 273.189 13.04 272.781 12.152 271.965C11.264 271.137 10.82 270.087 10.82 268.815C10.82 267.555 11.27 266.505 12.17 265.665C13.058 264.825 14.168 264.405 15.5 264.405C16.844 264.405 17.96 264.825 18.848 265.665ZM19.1 268.815C19.1 267.867 18.752 267.099 18.056 266.511C17.36 265.911 16.508 265.611 15.5 265.611C14.492 265.611 13.64 265.911 12.944 266.511C12.248 267.111 11.9 267.879 11.9 268.815C11.9 269.763 12.248 270.531 12.944 271.119C13.64 271.707 14.492 272.001 15.5 272.001C16.508 272.001 17.36 271.707 18.056 271.119C18.752 270.519 19.1 269.751 19.1 268.815ZM7.22 255.462L7.22 254.256L20 254.256L20 255.246L18.614 255.372L18.614 255.48C19.658 256.176 20.18 257.172 20.18 258.468C20.18 259.68 19.748 260.664 18.884 261.42C18.02 262.176 16.886 262.554 15.482 262.554C14.078 262.554 12.95 262.176 12.098 261.42C11.246 260.652 10.82 259.668 10.82 258.468C10.82 257.1 11.342 256.098 12.386 255.462L7.22 255.462ZM19.1 258.36C19.1 257.484 18.77 256.782 18.11 256.254C17.45 255.726 16.574 255.462 15.482 255.462C14.402 255.462 13.538 255.726 12.89 256.254C12.23 256.782 11.9 257.484 11.9 258.36C11.9 259.248 12.23 259.974 12.89 260.538C13.55 261.09 14.414 261.366 15.482 261.366C16.562 261.366 17.438 261.09 18.11 260.538C18.77 259.974 19.1 259.248 19.1 258.36ZM11 244.521L20 244.521L20 245.601L18.92 245.727L18.92 245.835C19.76 246.435 20.18 247.299 20.18 248.427C20.18 249.363 19.886 250.125 19.298 250.713C18.71 251.301 17.87 251.595 16.778 251.595L11 251.595L11 250.389L16.49 250.389C17.366 250.389 18.02 250.185 18.452 249.777C18.884 249.369 19.1 248.841 19.1 248.193C19.1 247.485 18.866 246.897 18.398 246.429C17.93 245.961 17.228 245.727 16.292 245.727L11 245.727L11 244.521ZM20.18 237.896C20.18 239.216 19.742 240.272 18.866 241.064C17.99 241.844 16.886 242.234 15.554 242.234C14.198 242.234 13.07 241.832 12.17 241.028C11.27 240.212 10.82 239.168 10.82 237.896C10.82 236.888 11.096 236.024 11.648 235.304C12.2 234.584 12.956 234.146 13.916 233.99L13.916 235.196C13.34 235.328 12.86 235.634 12.476 236.114C12.092 236.594 11.9 237.188 11.9 237.896C11.9 238.82 12.248 239.576 12.944 240.164C13.64 240.752 14.51 241.046 15.554 241.046C16.562 241.046 17.408 240.764 18.092 240.2C18.764 239.624 19.1 238.856 19.1 237.896C19.1 237.176 18.932 236.588 18.596 236.132C18.248 235.676 17.774 235.352 17.174 235.16L17.174 233.936C18.086 234.128 18.818 234.578 19.37 235.286C19.91 235.994 20.18 236.864 20.18 237.896ZM20.18 227.912C20.18 229.232 19.742 230.288 18.866 231.08C17.99 231.86 16.886 232.25 15.554 232.25C14.198 232.25 13.07 231.848 12.17 231.044C11.27 230.228 10.82 229.184 10.82 227.912C10.82 226.904 11.096 226.04 11.648 225.32C12.2 224.6 12.956 224.162 13.916 224.006L13.916 225.212C13.34 225.344 12.86 225.65 12.476 226.13C12.092 226.61 11.9 227.204 11.9 227.912C11.9 228.836 12.248 229.592 12.944 230.18C13.64 230.768 14.51 231.062 15.554 231.062C16.562 231.062 17.408 230.78 18.092 230.216C18.764 229.64 19.1 228.872 19.1 227.912C19.1 227.192 18.932 226.604 18.596 226.148C18.248 225.692 17.774 225.368 17.174 225.176L17.174 223.952C18.086 224.144 18.818 224.594 19.37 225.302C19.91 226.01 20.18 226.88 20.18 227.912ZM9.164 220.612C9.332 220.768 9.416 220.966 9.416 221.206C9.416 221.446 9.332 221.656 9.164 221.836C8.996 222.004 8.792 222.088 8.552 222.088C8.324 222.088 8.126 222.004 7.958 221.836C7.79 221.656 7.706 221.446 7.706 221.206C7.706 220.978 7.79 220.78 7.958 220.612C8.114 220.444 8.312 220.36 8.552 220.36C8.792 220.36 8.996 220.444 9.164 220.612ZM20 221.818L11 221.818L11 220.612L20 220.612L20 221.818ZM7.4 213.269L7.39999 212.153L10.01 213.449L10.01 214.457L7.4 213.269ZM18.848 210.821C19.736 211.649 20.18 212.699 20.18 213.971C20.18 215.243 19.736 216.293 18.848 217.121C17.948 217.937 16.832 218.345 15.5 218.345C14.156 218.345 13.04 217.937 12.152 217.121C11.264 216.293 10.82 215.243 10.82 213.971C10.82 212.711 11.27 211.661 12.17 210.821C13.058 209.981 14.168 209.561 15.5 209.561C16.844 209.561 17.96 209.981 18.848 210.821ZM19.1 213.971C19.1 213.023 18.752 212.255 18.056 211.667C17.36 211.067 16.508 210.767 15.5 210.767C14.492 210.767 13.64 211.067 12.944 211.667C12.248 212.267 11.9 213.035 11.9 213.971C11.9 214.919 12.248 215.687 12.944 216.275C13.64 216.863 14.492 217.157 15.5 217.157C16.508 217.157 17.36 216.863 18.056 216.275C18.752 215.675 19.1 214.907 19.1 213.971ZM20 207.298L11 207.298L11 206.218L12.08 206.092L12.08 205.984C11.24 205.384 10.82 204.52 10.82 203.392C10.82 202.456 11.114 201.694 11.702 201.106C12.29 200.518 13.13 200.224 14.222 200.224L20 200.224L20 201.43L14.51 201.43C13.634 201.43 12.98 201.634 12.548 202.042C12.116 202.45 11.9 202.978 11.9 203.626C11.9 204.334 12.134 204.922 12.602 205.39C13.07 205.858 13.772 206.092 14.708 206.092L20 206.092L20 207.298ZM7.21999 185.853L7.21999 184.647L20 184.647L20 185.637L18.614 185.763L18.614 185.871C19.658 186.567 20.18 187.563 20.18 188.859C20.18 190.071 19.748 191.055 18.884 191.811C18.02 192.567 16.886 192.945 15.482 192.945C14.078 192.945 12.95 192.567 12.098 191.811C11.246 191.043 10.82 190.059 10.82 188.859C10.82 187.491 11.342 186.489 12.386 185.853L7.21999 185.853ZM19.1 188.751C19.1 187.875 18.77 187.173 18.11 186.645C17.45 186.117 16.574 185.853 15.482 185.853C14.402 185.853 13.538 186.117 12.89 186.645C12.23 187.173 11.9 187.875 11.9 188.751C11.9 189.639 12.23 190.365 12.89 190.929C13.55 191.481 14.414 191.757 15.482 191.757C16.562 191.757 17.438 191.481 18.11 190.929C18.77 190.365 19.1 189.639 19.1 188.751ZM15.266 174.317C15.458 174.317 15.62 174.329 15.752 174.353L15.752 181.175C16.784 181.139 17.612 180.851 18.236 180.311C18.848 179.759 19.154 179.039 19.154 178.151C19.154 177.503 19.016 176.957 18.74 176.513C18.452 176.057 18.038 175.745 17.498 175.577L17.498 174.407C18.35 174.599 19.01 175.031 19.478 175.703C19.946 176.375 20.18 177.191 20.18 178.151C20.18 179.399 19.76 180.413 18.92 181.193C18.08 181.973 16.97 182.363 15.59 182.363C14.15 182.363 12.998 181.973 12.134 181.193C11.258 180.413 10.82 179.417 10.82 178.205C10.82 177.077 11.21 176.147 11.99 175.415C12.77 174.683 13.862 174.317 15.266 174.317ZM11.846 178.205C11.846 179.021 12.128 179.699 12.692 180.239C13.256 180.779 13.964 181.085 14.816 181.157L14.816 175.505C13.928 175.517 13.214 175.775 12.674 176.279C12.122 176.771 11.846 177.413 11.846 178.205ZM10.82 162.797C10.82 161.597 11.246 160.619 12.098 159.863C12.95 159.095 14.078 158.711 15.482 158.711C16.886 158.711 18.02 159.089 18.884 159.845C19.748 160.601 20.18 161.585 20.18 162.797C20.18 164.093 19.658 165.089 18.614 165.785L18.614 165.893L20 166.001L20 167.009L7.21999 167.009L7.21999 165.803L12.386 165.803C11.342 165.167 10.82 164.165 10.82 162.797ZM19.1 162.905C19.1 162.017 18.77 161.297 18.11 160.745C17.438 160.181 16.562 159.899 15.482 159.899C14.414 159.899 13.55 160.181 12.89 160.745C12.23 161.297 11.9 162.017 11.9 162.905C11.9 163.781 12.23 164.483 12.89 165.011C13.538 165.539 14.402 165.803 15.482 165.803C16.574 165.803 17.45 165.539 18.11 165.011C18.77 164.483 19.1 163.781 19.1 162.905ZM9.16399 155.204C9.33199 155.36 9.41599 155.558 9.41599 155.798C9.41599 156.038 9.33199 156.248 9.16399 156.428C8.99599 156.596 8.79199 156.68 8.55199 156.68C8.32399 156.68 8.12599 156.596 7.95799 156.428C7.78999 156.248 7.70599 156.038 7.70599 155.798C7.70599 155.57 7.78999 155.372 7.95799 155.204C8.11399 155.036 8.31199 154.952 8.55199 154.952C8.79199 154.952 8.99599 155.036 9.16399 155.204ZM20 156.41L11 156.41L11 155.204L20 155.204L20 156.41ZM15.266 144.891C15.458 144.891 15.62 144.903 15.752 144.927L15.752 151.749C16.784 151.713 17.612 151.425 18.236 150.885C18.848 150.333 19.154 149.613 19.154 148.725C19.154 148.077 19.016 147.531 18.74 147.087C18.452 146.631 18.038 146.319 17.498 146.151L17.498 144.981C18.35 145.173 19.01 145.605 19.478 146.277C19.946 146.949 20.18 147.765 20.18 148.725C20.18 149.973 19.76 150.987 18.92 151.767C18.08 152.547 16.97 152.937 15.59 152.937C14.15 152.937 12.998 152.547 12.134 151.767C11.258 150.987 10.82 149.991 10.82 148.779C10.82 147.651 11.21 146.721 11.99 145.989C12.77 145.257 13.862 144.891 15.266 144.891ZM11.846 148.779C11.846 149.595 12.128 150.273 12.692 150.813C13.256 151.353 13.964 151.659 14.816 151.731L14.816 146.079C13.928 146.091 13.214 146.349 12.674 146.853C12.122 147.345 11.846 147.987 11.846 148.779ZM20 142.541L11 142.541L11 141.461L12.08 141.335L12.08 141.227C11.24 140.627 10.82 139.763 10.82 138.635C10.82 137.699 11.114 136.937 11.702 136.349C12.29 135.761 13.13 135.467 14.222 135.467L20 135.467L20 136.673L14.51 136.673C13.634 136.673 12.98 136.877 12.548 137.285C12.116 137.693 11.9 138.221 11.9 138.869C11.9 139.577 12.134 140.165 12.602 140.633C13.07 141.101 13.772 141.335 14.708 141.335L20 141.335L20 142.541ZM15.266 125.169C15.458 125.169 15.62 125.181 15.752 125.205L15.752 132.027C16.784 131.991 17.612 131.703 18.236 131.163C18.848 130.611 19.154 129.891 19.154 129.003C19.154 128.355 19.016 127.809 18.74 127.365C18.452 126.909 18.038 126.597 17.498 126.429L17.498 125.259C18.35 125.451 19.01 125.883 19.478 126.555C19.946 127.227 20.18 128.043 20.18 129.003C20.18 130.251 19.76 131.265 18.92 132.045C18.08 132.825 16.97 133.215 15.59 133.215C14.15 133.215 12.998 132.825 12.134 132.045C11.258 131.265 10.82 130.269 10.82 129.057C10.82 127.929 11.21 126.999 11.99 126.267C12.77 125.535 13.862 125.169 15.266 125.169ZM11.846 129.057C11.846 129.873 12.128 130.551 12.692 131.091C13.256 131.631 13.964 131.937 14.816 132.009L14.816 126.357C13.928 126.369 13.214 126.627 12.674 127.131C12.122 127.623 11.846 128.265 11.846 129.057ZM20.18 119.989C20.18 121.045 19.922 121.855 19.406 122.419C18.878 122.971 18.194 123.259 17.354 123.283L17.354 122.113C18.578 122.005 19.19 121.297 19.19 119.989C19.19 119.437 19.07 118.987 18.83 118.639C18.59 118.291 18.23 118.117 17.75 118.117C17.474 118.117 17.234 118.177 17.03 118.297C16.814 118.405 16.634 118.573 16.49 118.801C16.346 119.017 16.238 119.215 16.166 119.395C16.082 119.575 15.998 119.803 15.914 120.079L15.752 120.619C15.668 120.883 15.596 121.099 15.536 121.267C15.464 121.423 15.362 121.627 15.23 121.879C15.086 122.119 14.936 122.311 14.78 122.455C14.624 122.599 14.42 122.725 14.168 122.833C13.904 122.941 13.616 122.995 13.304 122.995C12.548 122.995 11.948 122.719 11.504 122.167C11.048 121.603 10.82 120.913 10.82 120.097C10.82 119.161 11.072 118.441 11.576 117.937C12.068 117.421 12.644 117.145 13.304 117.109L13.304 118.279C12.86 118.327 12.5 118.513 12.224 118.837C11.948 119.161 11.81 119.581 11.81 120.097C11.81 120.589 11.936 121.003 12.188 121.339C12.428 121.663 12.782 121.825 13.25 121.825C13.49 121.825 13.7 121.783 13.88 121.699C14.048 121.603 14.192 121.453 14.312 121.249C14.432 121.045 14.528 120.865 14.6 120.709C14.66 120.553 14.738 120.331 14.834 120.043L14.996 119.557C15.104 119.209 15.218 118.909 15.338 118.657C15.458 118.393 15.62 118.117 15.824 117.829C16.028 117.541 16.292 117.325 16.616 117.181C16.94 117.025 17.306 116.947 17.714 116.947C18.53 116.947 19.148 117.235 19.568 117.811C19.976 118.387 20.18 119.113 20.18 119.989ZM23.78 108.967C23.78 109.279 23.72 109.675 23.6 110.155L22.628 110.155C22.724 109.807 22.772 109.477 22.772 109.165C22.772 108.265 22.304 107.635 21.368 107.275L20 106.735L20 107.185L11 110.641L11 109.381L18.722 106.447L18.722 106.339L11 103.549L11 102.271L21.548 106.123C21.812 106.219 22.028 106.315 22.196 106.411C22.376 106.495 22.604 106.645 22.88 106.861C23.168 107.077 23.39 107.365 23.546 107.725C23.702 108.085 23.78 108.499 23.78 108.967ZM20.18 92.6901C20.18 93.7461 19.922 94.5561 19.406 95.1201C18.878 95.6721 18.194 95.9601 17.354 95.9841L17.354 94.8141C18.578 94.7061 19.19 93.9981 19.19 92.6901C19.19 92.1381 19.07 91.6881 18.83 91.3401C18.59 90.9921 18.23 90.8181 17.75 90.8181C17.474 90.8181 17.234 90.8781 17.03 90.9981C16.814 91.1061 16.634 91.2741 16.49 91.5021C16.346 91.7181 16.238 91.9161 16.166 92.0961C16.082 92.2761 15.998 92.5041 15.914 92.7801L15.752 93.3201C15.668 93.5841 15.596 93.8001 15.536 93.9681C15.464 94.1241 15.362 94.3281 15.23 94.5801C15.086 94.8201 14.936 95.0121 14.78 95.1561C14.624 95.3001 14.42 95.4261 14.168 95.5341C13.904 95.6421 13.616 95.6961 13.304 95.6961C12.548 95.6961 11.948 95.4201 11.504 94.8681C11.048 94.3041 10.82 93.6141 10.82 92.7981C10.82 91.8621 11.072 91.1421 11.576 90.6381C12.068 90.1221 12.644 89.8461 13.304 89.8101L13.304 90.9801C12.86 91.0281 12.5 91.2141 12.224 91.5381C11.948 91.8621 11.81 92.2821 11.81 92.7981C11.81 93.2901 11.936 93.7041 12.188 94.0401C12.428 94.3641 12.782 94.5261 13.25 94.5261C13.49 94.5261 13.7 94.4841 13.88 94.4001C14.048 94.3041 14.192 94.1541 14.312 93.9501C14.432 93.7461 14.528 93.5661 14.6 93.4101C14.66 93.2541 14.738 93.0321 14.834 92.7441L14.996 92.2581C15.104 91.9101 15.218 91.6101 15.338 91.3581C15.458 91.0941 15.62 90.8181 15.824 90.5301C16.028 90.2421 16.292 90.0261 16.616 89.8821C16.94 89.7261 17.306 89.6481 17.714 89.6481C18.53 89.6481 19.148 89.9361 19.568 90.5121C19.976 91.0881 20.18 91.8141 20.18 92.6901ZM15.266 79.8346C15.458 79.8346 15.62 79.8466 15.752 79.8706L15.752 86.6926C16.784 86.6566 17.612 86.3686 18.236 85.8286C18.848 85.2766 19.154 84.5566 19.154 83.6686C19.154 83.0206 19.016 82.4746 18.74 82.0306C18.452 81.5746 18.038 81.2626 17.498 81.0946L17.498 79.9246C18.35 80.1166 19.01 80.5486 19.478 81.2206C19.946 81.8926 20.18 82.7086 20.18 83.6686C20.18 84.9166 19.76 85.9306 18.92 86.7106C18.08 87.4906 16.97 87.8806 15.59 87.8806C14.15 87.8806 12.998 87.4906 12.134 86.7106C11.258 85.9306 10.82 84.9346 10.82 83.7226C10.82 82.5946 11.21 81.6646 11.99 80.9326C12.77 80.2006 13.862 79.8346 15.266 79.8346ZM11.846 83.7226C11.846 84.5386 12.128 85.2166 12.692 85.7566C13.256 86.2966 13.964 86.6026 14.816 86.6746L14.816 81.0226C13.928 81.0346 13.214 81.2926 12.674 81.7966C12.122 82.2886 11.846 82.9306 11.846 83.7226ZM20 77.4839L11 77.4839L11 76.4219L12.224 76.2779L12.224 76.1699C11.288 75.6539 10.82 74.8199 10.82 73.6679L10.82 73.1999L12.044 73.1999C12.02 73.3679 12.008 73.6139 12.008 73.9379C12.008 74.6219 12.278 75.1859 12.818 75.6299C13.346 76.0619 14.078 76.2779 15.014 76.2779L20 76.2779L20 77.4839ZM20 68.5495L11 71.9695L11 70.7095L18.74 67.8475L18.74 67.7395L11 64.8595L11 63.5995L20 67.0195L20 68.5495ZM9.16399 60.6685C9.33199 60.8245 9.41599 61.0225 9.41599 61.2625C9.41599 61.5025 9.33199 61.7125 9.16399 61.8925C8.99599 62.0605 8.79199 62.1445 8.55199 62.1445C8.32399 62.1445 8.12599 62.0605 7.95799 61.8925C7.78999 61.7125 7.70599 61.5025 7.70599 61.2625C7.70599 61.0345 7.78999 60.8365 7.95799 60.6685C8.11399 60.5005 8.31199 60.4165 8.55199 60.4165C8.79199 60.4165 8.99599 60.5005 9.16399 60.6685ZM20 61.8745L11 61.8745L11 60.6685L20 60.6685L20 61.8745ZM20.18 54.064C20.18 55.384 19.742 56.44 18.866 57.232C17.99 58.012 16.886 58.402 15.554 58.402C14.198 58.402 13.07 58 12.17 57.196C11.27 56.38 10.82 55.336 10.82 54.064C10.82 53.056 11.096 52.192 11.648 51.472C12.2 50.752 12.956 50.314 13.916 50.158L13.916 51.364C13.34 51.496 12.86 51.802 12.476 52.282C12.092 52.762 11.9 53.356 11.9 54.064C11.9 54.988 12.248 55.744 12.944 56.332C13.64 56.92 14.51 57.214 15.554 57.214C16.562 57.214 17.408 56.932 18.092 56.368C18.764 55.792 19.1 55.024 19.1 54.064C19.1 53.344 18.932 52.756 18.596 52.3C18.248 51.844 17.774 51.52 17.174 51.328L17.174 50.104C18.086 50.296 18.818 50.746 19.37 51.454C19.91 52.162 20.18 53.032 20.18 54.064ZM9.16399 46.7642C9.33199 46.9202 9.41599 47.1182 9.41599 47.3582C9.41599 47.5982 9.33199 47.8082 9.16399 47.9882C8.99599 48.1562 8.79199 48.2402 8.55199 48.2402C8.32399 48.2402 8.12599 48.1562 7.95799 47.9882C7.78999 47.8082 7.70599 47.5982 7.70599 47.3582C7.70599 47.1302 7.78999 46.9322 7.95799 46.7642C8.11399 46.5962 8.31199 46.5122 8.55199 46.5122C8.79199 46.5122 8.99599 46.5962 9.16399 46.7642ZM20 47.9702L11 47.9702L11 46.7642L20 46.7642L20 47.9702ZM18.848 36.9737C19.736 37.8017 20.18 38.8517 20.18 40.1237C20.18 41.3957 19.736 42.4457 18.848 43.2737C17.948 44.0897 16.832 44.4977 15.5 44.4977C14.156 44.4977 13.04 44.0897 12.152 43.2737C11.264 42.4457 10.82 41.3957 10.82 40.1237C10.82 38.8637 11.27 37.8137 12.17 36.9737C13.058 36.1337 14.168 35.7137 15.5 35.7137C16.844 35.7137 17.96 36.1337 18.848 36.9737ZM19.1 40.1237C19.1 39.1757 18.752 38.4077 18.056 37.8197C17.36 37.2197 16.508 36.9197 15.5 36.9197C14.492 36.9197 13.64 37.2197 12.944 37.8197C12.248 38.4197 11.9 39.1877 11.9 40.1237C11.9 41.0717 12.248 41.8397 12.944 42.4277C13.64 43.0157 14.492 43.3097 15.5 43.3097C16.508 43.3097 17.36 43.0157 18.056 42.4277C18.752 41.8277 19.1 41.0597 19.1 40.1237ZM20.18 30.6745C20.18 31.7305 19.922 32.5405 19.406 33.1045C18.878 33.6565 18.194 33.9445 17.354 33.9685L17.354 32.7985C18.578 32.6905 19.19 31.9825 19.19 30.6745C19.19 30.1225 19.07 29.6725 18.83 29.3245C18.59 28.9764 18.23 28.8024 17.75 28.8024C17.474 28.8024 17.234 28.8625 17.03 28.9825C16.814 29.0905 16.634 29.2585 16.49 29.4865C16.346 29.7025 16.238 29.9005 16.166 30.0805C16.082 30.2605 15.998 30.4885 15.914 30.7645L15.752 31.3045C15.668 31.5685 15.596 31.7845 15.536 31.9525C15.464 32.1085 15.362 32.3125 15.23 32.5645C15.086 32.8045 14.936 32.9965 14.78 33.1405C14.624 33.2845 14.42 33.4105 14.168 33.5185C13.904 33.6265 13.616 33.6805 13.304 33.6805C12.548 33.6805 11.948 33.4045 11.504 32.8525C11.048 32.2885 10.82 31.5985 10.82 30.7825C10.82 29.8465 11.072 29.1265 11.576 28.6225C12.068 28.1065 12.644 27.8305 13.304 27.7945L13.304 28.9645C12.86 29.0125 12.5 29.1985 12.224 29.5225C11.948 29.8465 11.81 30.2665 11.81 30.7825C11.81 31.2745 11.936 31.6885 12.188 32.0245C12.428 32.3485 12.782 32.5105 13.25 32.5105C13.49 32.5105 13.7 32.4685 13.88 32.3845C14.048 32.2885 14.192 32.1385 14.312 31.9345C14.432 31.7305 14.528 31.5505 14.6 31.3945C14.66 31.2385 14.738 31.0165 14.834 30.7285L14.996 30.2425C15.104 29.8945 15.218 29.5945 15.338 29.3425C15.458 29.0785 15.62 28.8025 15.824 28.5144C16.028 28.2265 16.292 28.0105 16.616 27.8665C16.94 27.7105 17.306 27.6324 17.714 27.6324C18.53 27.6324 19.148 27.9204 19.568 28.4964C19.976 29.0725 20.18 29.7985 20.18 30.6745Z" fill="white"/>
<path fill-rule="evenodd" clip-rule="evenodd" d="M41.2542 0.386755C40.7385 -0.128918 39.9025 -0.128918 39.3868 0.386755L30.9834 8.79013C30.4677 9.30581 30.4677 10.1419 30.9834 10.6575C31.4991 11.1732 32.3351 11.1732 32.8508 10.6575L39 4.50834V297.104H41.641V297.045H347.955L342.082 302.918C341.589 303.411 341.589 304.209 342.082 304.702C342.574 305.195 343.373 305.195 343.866 304.702L351.892 296.676C352.384 296.183 352.384 295.385 351.892 294.892L343.866 286.866C343.373 286.373 342.574 286.373 342.082 286.866C341.589 287.358 341.589 288.157 342.082 288.649L347.955 294.523H41.641V4.50834L47.7902 10.6575C48.3058 11.1732 49.1419 11.1732 49.6576 10.6575C50.1732 10.1419 50.1732 9.30581 49.6576 8.79013L41.2542 0.386755Z" fill="white"/>
<circle cx="274.5" cy="73.5" r="6.5" fill="#628B93"/>
<circle cx="261.5" cy="40.5" r="6.5" fill="#628B93"/>
<circle cx="300.5" cy="80.5" r="6.5" fill="#628B93"/>
<circle cx="271.5" cy="98.5" r="6.5" fill="#628B93"/>
<circle cx="248.5" cy="73.5" r="6.5" fill="#628B93"/>
<circle cx="290.5" cy="53.5" r="6.5" fill="#628B93"/>
<circle cx="96.5" cy="225.5" r="6.5" fill="#DADADA"/>
<circle cx="86.5" cy="199.5" r="6.5" fill="#DADADA"/>
<circle cx="60.5" cy="201.5" r="6.5" fill="#DADADA"/>
<circle cx="96.5" cy="257.5" r="6.5" fill="#DADADA"/>
<circle cx="73.5" cy="232.5" r="6.5" fill="#DADADA"/>
<circle cx="72.5" cy="180.5" r="6.5" fill="#DADADA"/>
<circle cx="66.5" cy="270.5" r="6.5" fill="#DADADA"/>
<circle cx="56.5" cy="244.5" r="6.5" fill="#DADADA"/>
<circle cx="72.5" cy="154.5" r="6.5" fill="#DADADA"/>
<circle cx="82.5" cy="283.5" r="6.5" fill="#DADADA"/>
<circle cx="56.5" cy="167.5" r="6.5" fill="#DADADA"/>
<circle cx="56.5" cy="134.5" r="6.5" fill="#DADADA"/>
<path d="M42 100C66 113.167 114 170.4 114 294" stroke="#628B93"/>
<path d="M157 144.846H203.098" stroke="#CEB98E" stroke-width="6"/>
<path d="M157 162.853H203.098" stroke="#CEB98E" stroke-width="6"/>
<path d="M192.93 127L167 178.5" stroke="#CEB98E" stroke-width="6"/>
<path d="M113.001 211.95C112.973 212.501 113.398 212.971 113.95 212.999L122.938 213.451C123.49 213.479 123.96 213.055 123.987 212.503C124.015 211.951 123.59 211.482 123.039 211.454L115.049 211.052L115.451 203.062C115.479 202.51 115.055 202.04 114.503 202.013C113.951 201.985 113.482 202.41 113.454 202.961L113.001 211.95ZM114.671 212.742L116.191 211.367L114.85 209.883L113.329 211.258L114.671 212.742ZM119.233 208.617L122.275 205.867L120.934 204.383L117.892 207.133L119.233 208.617ZM125.316 203.117L128.358 200.367L127.017 198.883L123.975 201.633L125.316 203.117ZM131.4 197.617L134.441 194.867L133.1 193.383L130.059 196.133L131.4 197.617ZM137.483 192.117L140.525 189.367L139.184 187.883L136.142 190.633L137.483 192.117ZM143.566 186.617L146.608 183.867L145.267 182.383L142.225 185.133L143.566 186.617ZM149.65 181.117L151.171 179.742L149.829 178.258L148.309 179.633L149.65 181.117Z" fill="#CEB98E"/>
<path d="M245.499 99.0503C245.527 98.4987 245.102 98.029 244.55 98.0013L235.562 97.5486C235.01 97.5208 234.54 97.9455 234.513 98.497C234.485 99.0486 234.91 99.5183 235.461 99.5461L243.451 99.9484L243.049 107.938C243.021 108.49 243.445 108.96 243.997 108.987C244.549 109.015 245.018 108.59 245.046 108.039L245.499 99.0503ZM243.829 98.2582L242.309 99.6332L243.65 101.117L245.171 99.7418L243.829 98.2582ZM239.267 102.383L236.225 105.133L237.566 106.617L240.608 103.867L239.267 102.383ZM233.184 107.883L230.142 110.633L231.483 112.117L234.525 109.367L233.184 107.883ZM227.1 113.383L224.059 116.133L225.4 117.617L228.441 114.867L227.1 113.383ZM221.017 118.883L217.975 121.633L219.316 123.117L222.358 120.367L221.017 118.883ZM214.934 124.383L211.892 127.133L213.233 128.617L216.275 125.867L214.934 124.383ZM208.85 129.883L207.329 131.258L208.671 132.742L210.191 131.367L208.85 129.883Z" fill="#CEB98E"/>
</svg>
