<svg width="97" height="30" viewBox="0 0 97 30" fill="none" xmlns="http://www.w3.org/2000/svg">
<path d="M1.11494 2.99339C0.566315 3.05686 0.0701065 2.66357 0.00662994 2.11495C-0.0568466 1.56632 0.336441 1.07012 0.885063 1.00664L1.11494 2.99339ZM96.5 29C96.5 29.5523 96.0523 30 95.5 30H86.5C85.9477 30 85.5 29.5523 85.5 29C85.5 28.4477 85.9477 28 86.5 28H94.5V20C94.5 19.4477 94.9477 19 95.5 19C96.0523 19 96.5 19.4477 96.5 20V29ZM0.885063 1.00664C11.0668 -0.171417 27.999 -0.218944 45.814 3.44552C63.6229 7.10874 82.4173 14.5031 96.2071 28.2929L94.7929 29.7071C81.3827 16.297 63.0104 9.02462 45.411 5.40451C27.8177 1.78564 11.0998 1.83811 1.11494 2.99339L0.885063 1.00664Z" fill="#CEB98E"/>
</svg>
