<svg width="1000" height="458" viewBox="0 0 1000 458" fill="none" xmlns="http://www.w3.org/2000/svg">
<path fill-rule="evenodd" clip-rule="evenodd" d="M443.4 134.2L264 30.6V365.6L443.4 419.6V134.3M463 135V420L643.6 365.6V30.6L463 135ZM784.4 22.2C784.4 10.4 775 1 763.2 1C751.4 1 742 10.3 742 22V45H784.4V22.2ZM747.4 359.7H742L763.2 433.9L784.4 359.4H779H784.4V61.4H742V359.4H747.3" fill="white"/>
<path fill-rule="evenodd" clip-rule="evenodd" d="M682.2 45L663 29.8V374.8L463.6 439H443.3L245 383.8V29.8L225.8 45V397.2L442.5 457.2H464.5L664.5 393.7L682.2 388.5V45Z" fill="white"/>
</svg>
