<svg width="1000" height="533" viewBox="0 0 1000 533" fill="none" xmlns="http://www.w3.org/2000/svg">
<path fill-rule="evenodd" clip-rule="evenodd" d="M498.3 347.6C432.3 347.6 378.3 293.9 378.3 227.8C378.3 161.8 432.3 108 498.3 108C564.3 108 618 161.8 618 227.8C618 293.8 564.3 347.6 498.2 347.6M728.4 0.400024H604C603.2 0.400024 602.5 1.10002 602.5 2.00002V43.3C602.5 44.3 603.2 44.9 604 44.9H653.5L598.5 99.7C571 78 536.2 65 498.4 65C408.6 65 335.6 138 335.6 227.8C335.6 310.5 397.6 378.8 477.3 389.2V436.8H428.3C427.3 436.8 426.7 437.5 426.7 438.4V482.6C426.7 483.6 427.4 484.2 428.3 484.2H477.3V531.2C477.3 532 478 532.7 478.9 532.7H523C524 532.7 524.7 532 524.7 531.1V484.3H573.7C574.5 484.3 575.2 483.6 575.2 482.8V438.5C575.2 437.5 574.5 436.9 573.7 436.9H524.7V388.5C602 375.7 661 308.6 661 227.8C661 193 650 160.8 631.3 134.2L685.3 80V126.2C685.3 127.2 686.1 127.8 687 127.8H728.3C729.3 127.8 729.9 127.1 729.9 126.3V2.00002C729.9 1.00002 729.1 0.400024 728.2 0.400024" fill="white"/>
<path fill-rule="evenodd" clip-rule="evenodd" d="M571.4 178.7H426C425.2 178.7 424.5 179.3 424.5 180.1V215.3C424.5 216.3 425.2 216.8 426.1 216.8H571.6C572.6 216.8 573.2 216.1 573.2 215.3V180C573.2 179.2 572.6 178.6 571.7 178.6M571.7 241.4H426C425.2 241.4 424.5 242.1 424.5 242.9V277.9C424.5 278.9 425.2 279.4 426.1 279.4H571.6C572.6 279.4 573.2 278.7 573.2 278V243C573.2 242 572.6 241.4 571.7 241.4" fill="white"/>
</svg>
