<svg width="1000" height="511" viewBox="0 0 1000 511" fill="none" xmlns="http://www.w3.org/2000/svg">
<path fill-rule="evenodd" clip-rule="evenodd" d="M500.4 332C458.4 332 424.2 298 424.2 256C424.2 221.7 446.7 192.8 477.7 183V211.5C461.7 219.7 450.5 236.5 450.5 255.9C450.5 283.4 472.8 305.7 500.5 305.7C528 305.7 550.3 283.4 550.3 255.7C550.3 236.4 539.1 219.7 522.9 211.3V183C553.9 192.7 576.5 221.7 576.5 256C576.5 298 542.5 332 500.3 332H500.4ZM489.4 168.4C489.4 163.4 494.4 158.1 500.4 158.1C506.4 158.1 511.4 163.6 511.4 168.5V218.8C511.4 223.8 506.4 229 500.4 229C494.4 229 489.4 223.6 489.4 218.7V168.4V168.4ZM500.4 110.4C419.4 110.4 353.8 176.1 353.8 257C353.8 338 419.4 403.6 500.4 403.6C581.4 403.6 647 338 647 257C647 176 581.3 110.5 500.4 110.5V110.4ZM332 255.8C332 249.1 326.2 243.8 321 243.8H256.7C251.3 243.8 245.3 249.1 245.3 255.8C245.3 262.4 251.3 267.8 256.7 267.8H321C326.2 267.8 332 262.4 332 255.8ZM755.5 255.8C755.5 249.1 749.5 243.8 744.2 243.8H680C674.6 243.8 668.7 249.1 668.7 255.8C668.7 262.4 674.7 267.8 680 267.8H744.2C749.6 267.8 755.5 262.4 755.5 255.8ZM500.4 87.5C507.1 87.5 512.4 81.5 512.4 76.3V12C512.4 6.69995 507.1 0.699951 500.4 0.699951C493.8 0.699951 488.4 6.69995 488.4 12.1V76.4C488.4 81.7 493.8 87.6 500.4 87.6M500.4 510.8C507.1 510.8 512.4 505 512.4 499.6V435.4C512.4 430 507.1 424.1 500.4 424.1C493.8 424.1 488.4 430.1 488.4 435.5V499.7C488.4 505.1 493.8 510.9 500.4 510.9M354.4 172.2C357.7 166.4 355.2 158.8 350.6 156.2L295 124C290.2 121.4 282.3 123 279 129C275.7 134.6 278.2 142.3 283 145L338.6 177C343.3 179.5 351.1 177.8 354.4 172M721.8 382.5C725.1 376.7 722.6 369.1 718 366.5L662.3 334.5C657.6 331.9 649.8 333.5 646.5 339.5C643.2 345.1 645.5 352.8 650.3 355.5L706 387.3C710.7 390 718.5 388.3 721.8 382.5ZM584 109.8C589.8 113 597.4 110.6 600 106L632 50.2C634.6 45.5 633 37.7 627 34.4C621.3 31.1 613.7 33.6 611 38.4L579 94C576.4 98.6 578.2 106.4 584 109.8ZM373.7 477.2C379.5 480.5 387.1 478 389.7 473.4L421.7 417.7C424.3 413 422.7 405.1 416.7 401.7C411.1 398.5 403.4 401 400.7 405.7L368.7 461.4C366.2 466.1 367.9 473.9 373.7 477.2ZM416.5 110C422.3 106.6 424 98.8 421.3 94L389.3 38.5C386.6 33.8 379 31.3 373.3 34.7C367.5 38 365.8 45.7 368.5 50.5L400.5 106.1C403.1 110.9 410.8 113.3 416.5 110.1M627.6 477C633.3 473.6 635.1 465.8 632.4 461L600.4 405.5C597.7 400.8 590.1 398.3 584.4 401.5C578.4 405 576.8 412.8 579.4 417.5L611.4 473.1C614.2 477.9 621.8 480.3 627.6 477.1M646.3 172C649.6 177.7 657.3 179.4 662 176.7L717.7 144.7C722.4 142 724.7 134.4 721.5 128.7C718.2 122.9 710.5 121.1 705.7 123.7L650 155.7C645.4 158.5 643 166.1 646.3 171.9M279.3 383C282.6 388.7 290.3 390.4 295.1 387.8L350.8 355.8C355.5 353.1 358 345.4 354.6 339.8C351.3 333.8 343.6 332.2 338.8 334.8L283 367C278.4 369.7 276 377.4 279.3 383.2" fill="white"/>
</svg>
