<svg width="1000" height="509" viewBox="0 0 1000 509" fill="none" xmlns="http://www.w3.org/2000/svg">
<path fill-rule="evenodd" clip-rule="evenodd" d="M694.8 121L593 217.7C589.3 221.5 587.3 224.3 587.3 232.2V503.2C587.3 506.4 589.9 509 593.1 509H698.1C701.7 509 704.1 506.3 704.1 503.2V123.4C704.1 120.2 701.8 114.4 695.1 121M402 247L300 343.5C296.2 347.3 294.2 350.1 294.2 358V503.2C294.2 506.2 296.8 508.9 300 508.9H405C408.2 508.9 410.8 505.9 410.8 502.9V249.3C410.8 246.1 408.3 240.3 401.8 246.8" fill="white"/>
<path fill-rule="evenodd" clip-rule="evenodd" d="M741 3.69995C741 2.89995 740.7 2.09995 740 1.49995C739.6 0.999951 739 0.699951 738.2 0.699951H736.8L659 18.4H657.6C657 18.6 656.6 18.9 656.1 19.4C655.1 20.4 655.1 22.4 656.1 23.4L657.1 24.4L675 42L498.4 218.6L417 137C416 136 414.5 136 413.6 137L391.6 159L261 289.7C260 290.7 260 292.1 261 293L283 315C284 316 285.3 316 286.2 315L415.2 186.2L474.2 245.2C474.2 245.4 474.2 245.5 474.4 245.6L496.4 267.6C497.4 268.6 498.9 268.6 499.8 267.6L699.8 67.6L719 86C720 87 722 87 723 86C723.7 85.4 724 84.7 724 84L741 4.59995V3.59995" fill="white"/>
<path fill-rule="evenodd" clip-rule="evenodd" d="M549 264L499.7 313.5C498.7 314.3 497.4 314.2 496.7 313.5L452 267.8C443.8 259.6 442 266.2 442 269.4V503C442 506.2 444.7 508.8 448 508.8H553C556 508.8 558.7 506.2 558.7 503V265.8C558.7 262.5 556.1 256.8 548.9 263.8" fill="white"/>
</svg>
