<svg width="1000" height="508" viewBox="0 0 1000 508" fill="none" xmlns="http://www.w3.org/2000/svg">
<path fill-rule="evenodd" clip-rule="evenodd" d="M165 367.3H315.5C317.5 367.3 319.1 365.6 319.1 363.6C319.1 362.6 318.9 361.8 318.3 361.2L318.1 360.9L243.1 263.9L242.5 263.2C241.8 262.5 240.9 262 239.8 262C238.8 262 238 262.5 237.4 263L236.9 263.6L236.2 264.4L163.2 360.2L162.2 361.5C161.8 362.1 161.5 362.8 161.5 363.5C161.5 365.5 163.2 367.3 165.2 367.3M315 381H164.3C162.3 381 160.6 382.6 160.6 384.6V502.6C160.6 504.6 162.2 506.3 164.3 506.3H212.8V432C212.8 430 214.4 428.4 216.5 428.4H261.5C263.5 428.4 265.2 430 265.2 432.1V506.4H315C317 506.4 318.7 504.7 318.7 502.7V384.7C318.7 382.7 317 381.1 315 381.1M822.4 398.4C822.4 400.4 820.8 401.9 818.8 401.9H774.2C772.2 401.9 770.5 400.2 770.5 398.3V371.3C770.5 369.3 772.2 367.6 774.2 367.6H818.8C820.8 367.6 822.4 369.2 822.4 371.2V398.2V398.4ZM822.4 448.4C822.4 450.4 820.8 452 818.8 452H774.2C772.2 452 770.5 450.4 770.5 448.4V421.4C770.5 419.4 772.2 417.8 774.2 417.8H818.8C820.8 417.8 822.4 419.4 822.4 421.3V448.3V448.4ZM754.4 398.4C754.4 400.4 752.7 401.9 750.6 401.9H706C704 401.9 702.4 400.2 702.4 398.3V371.3C702.4 369.3 704.1 367.6 706.1 367.6H750.7C752.7 367.6 754.4 369.2 754.4 371.2V398.2V398.4ZM754.4 448.4C754.4 450.4 752.7 452 750.6 452H706C704 452 702.4 450.4 702.4 448.4V421.4C702.4 419.4 704.1 417.8 706.1 417.8H750.7C752.7 417.8 754.4 419.4 754.4 421.3V448.3V448.4ZM835.9 350.1H686.6C684.6 350.1 683 351.7 683 353.7V504.4C683 506.4 684.7 507.9 686.7 507.9H836C838 507.9 839.6 506.3 839.6 504.4V353.6C839.6 351.6 837.9 350.1 835.9 350.1V350.1ZM468 107.5C468 108.5 467 109.5 466 109.5H432.5C431.5 109.5 430.5 108.5 430.5 107.5V70.1999C430.5 69.1999 431.5 68.1999 432.5 68.1999H466C467 68.1999 468 69.1999 468 70.1999V107.5ZM468 193C468 194 467 195 466 195H432.5C431.5 195 430.5 194 430.5 193V155.8C430.5 154.8 431.5 153.8 432.5 153.8H466C467 153.8 468 154.8 468 155.8V193ZM468 278.6C468 279.6 467 280.6 466 280.6H432.5C431.5 280.6 430.5 279.6 430.5 278.6V241.3C430.5 240.3 431.5 239.3 432.5 239.3H466C467 239.3 468 240.3 468 241.3V278.6ZM468 364.1C468 365.3 467 366.1 466 366.1H432.5C431.5 366.1 430.5 365.3 430.5 364.1V327.1C430.5 325.9 431.5 325.1 432.5 325.1H466C467 325.1 468 325.9 468 327.1V364.1ZM468 449.8C468 450.8 467 451.8 466 451.8H432.5C431.5 451.8 430.5 450.8 430.5 449.8V412.5C430.5 411.5 431.5 410.5 432.5 410.5H466C467 410.5 468 411.5 468 412.5V449.8ZM402.3 107.6C402.3 108.6 401.3 109.6 400.3 109.6H367C366 109.6 365 108.6 365 107.6V70.1999C365 69.1999 366 68.1999 367 68.1999H400.4C401.4 68.1999 402.4 69.1999 402.4 70.1999V107.5L402.3 107.6ZM402.3 193.1C402.3 194.1 401.3 195.1 400.3 195.1H367C366 195.1 365 194.1 365 193.1V155.9C365 154.9 366 153.9 367 153.9H400.4C401.4 153.9 402.4 154.9 402.4 155.9V193L402.3 193.1ZM402.3 278.7C402.3 279.7 401.3 280.7 400.3 280.7H367C366 280.7 365 279.7 365 278.7V241.4C365 240.4 366 239.4 367 239.4H400.4C401.4 239.4 402.4 240.4 402.4 241.4V278.7H402.3ZM402.3 364.2C402.3 365.4 401.3 366.2 400.3 366.2H367C366 366.2 365 365.4 365 364.2V327.2C365 326 366 325.2 367 325.2H400.4C401.4 325.2 402.4 326 402.4 327.2V364.2H402.3ZM402.3 449.9C402.3 450.9 401.3 451.9 400.3 451.9H367C366 451.9 365 450.9 365 449.9V412.6C365 411.6 366 410.6 367 410.6H400.4C401.4 410.6 402.4 411.6 402.4 412.6V449.9H402.3ZM489 0.399902H343.3C341.3 0.399902 339.7 1.9999 339.7 3.9999V503C339.7 505 341.3 506.5 343.3 506.5H489.3C491.3 506.5 492.8 504.9 492.8 502.9V3.9999C492.8 1.9999 491.2 0.399902 489.2 0.399902H489ZM839.4 335C839.4 336.6 838.1 338 836.4 338H686.2C684.6 338 683.2 336.6 683.2 335V305C683.2 303.2 684.6 302 686.2 302H836.4C838.1 302 839.4 303.2 839.4 305V335M649 247C649 249 647.3 250.7 645.3 250.7H601.8C599.8 250.7 598.2 249.1 598.2 247.1V220.1C598.2 218.1 599.8 216.4 601.8 216.4H645.3C647.3 216.4 648.9 218 648.9 220V247H649ZM649 297.4C649 299.4 647.3 301 645.3 301H601.8C599.8 301 598.2 299.4 598.2 297.4V270.2C598.2 268.2 599.8 266.6 601.8 266.6H645.3C647.3 266.6 648.9 268.2 648.9 270.2V297.4H649ZM649 347.8C649 349.8 647.3 351.3 645.3 351.3H601.8C599.8 351.3 598.2 349.7 598.2 347.8V320.5C598.2 318.5 599.8 316.9 601.8 316.9H645.3C647.3 316.9 648.9 318.4 648.9 320.4V347.7L649 347.8ZM649 398.1C649 400.1 647.3 401.7 645.3 401.7H601.8C599.8 401.7 598.2 400.1 598.2 398.2V371C598.2 369 599.8 367.5 601.8 367.5H645.3C647.3 367.5 648.9 369 648.9 371V398L649 398.1ZM649 448.5C649 450.5 647.3 452.1 645.3 452.1H601.8C599.8 452.1 598.2 450.5 598.2 448.5V421.3C598.2 419.3 599.8 417.7 601.8 417.7H645.3C647.3 417.7 648.9 419.3 648.9 421.3V448.5H649ZM582.5 237.5V297.5C582.5 299.5 580.9 301.1 578.9 301.1H535.3C533.3 301.1 531.7 299.5 531.7 297.6V290C531.7 289.4 531.7 289 532 288.6L532.3 288.2C532.3 288 532.5 287.8 532.6 287.7C532.6 287.5 532.9 287.3 533 287.1C538.6 279.3 563.7 248.3 574.2 235.4L575.2 234.1C576.2 233.1 577.2 232.6 578.5 232.6C580.5 232.6 582.1 234.1 582.5 236V237.5V237.5ZM582.5 347.9C582.5 349.9 580.8 351.4 578.8 351.4H535.3C533.3 351.4 531.7 349.8 531.7 347.9V320.6C531.7 318.6 533.3 317 535.3 317H578.8C580.8 317 582.4 318.5 582.4 320.5V347.8L582.5 347.9ZM582.5 398.2C582.5 400.2 580.8 401.8 578.8 401.8H535.3C533.3 401.8 531.7 400.2 531.7 398.3V371C531.7 369 533.3 367.5 535.3 367.5H578.8C580.8 367.5 582.4 369 582.4 371V398L582.5 398.2ZM582.5 448.6C582.5 450.6 580.8 452.2 578.8 452.2H535.3C533.3 452.2 531.7 450.6 531.7 448.6V421.4C531.7 419.4 533.3 417.8 535.3 417.8H578.8C580.8 417.8 582.4 419.4 582.4 421.4V448.6H582.5ZM605.1 193.6L606.1 192.4C616.1 179.8 632.6 159.4 640.6 149.6L641.6 148.3C642.4 147.5 643.6 146.9 644.9 146.9C646.9 146.9 648.5 148.3 648.9 150.2V196.2C648.9 198.4 647.1 200.2 644.9 200.2H644.7H608.7H608.5H608.3C606.1 200.2 604.3 198.4 604.3 196.2C604.3 195.2 604.7 194.4 605.3 193.7L605.1 193.6ZM665.6 94.8999C665.1 93.1999 663.6 92.0999 661.9 92.0999C661.1 92.0999 660.4 92.2999 659.9 92.6999H659.5L658.3 94.3999L514.8 276.4L514.2 277.4C513.5 278 513.2 279 513 280.1V503.8C513 505.8 514.6 507.3 516.6 507.3H662.6C664.4 507.3 666 505.7 666 503.8V95.9999C666 95.5999 666 94.9999 665.7 94.6999L665.6 94.8999Z" fill="white"/>
</svg>
