<svg width="1000" height="344" viewBox="0 0 1000 344" fill="none" xmlns="http://www.w3.org/2000/svg">
<path fill-rule="evenodd" clip-rule="evenodd" d="M778.72 35.68C737.94 3.48 689.02 0 669.9 0C659.8 0 650.47 0.9 643.64 2.53L640.94 3.15C615.12 9.25 571.89 19.45 521.56 81.92L520.09 83.75C519.25 84.95 518.82 86.21 518.82 87.53C518.82 88.67 519.1 89.77 519.7 90.83L520.85 92.73C529.15 106.61 536.07 118.68 541.55 128.93C543.52 132.73 548.77 133.97 552.32 130.43C552.66 129.97 553.02 129.49 553.26 129.11C596.73 69 630.8 61 653.34 55.7L656.14 55.04C659.24 54.29 664.27 53.86 669.94 53.86C680.42 53.86 716.84 55.61 745.27 78.06C770.55 98.01 783.37 129.88 783.37 172.8C783.37 244.7 748.57 272.76 719.37 283.64C708.25 287.8 696.24 289.91 683.71 289.91C653.65 289.91 630.51 277.87 630.21 277.71L628.11 276.69C603.01 265.79 565.51 243.06 530.07 171.89C457.4 25.92 396.36 12.1 355.94 2.93L353.81 2.46C350.73 1.77 342 0.13 327.77 0.13C304.37 0.13 259.35 4.73 220.77 35.53C194.4 56.55 163 97.37 163 172.48C163 218.25 172.42 248.48 196.6 280.28C201.13 286.48 243.25 340.86 324.1 340.86C336.07 340.86 348.5 339.64 361 337.24C375.77 334.41 398.56 327.12 424 308.46L445.25 327.63C447.62 329.8 451.75 329.57 453.87 327.23C454.91 326.13 455.47 324.65 455.41 323.19L471.86 221.89V220.72C471.86 218.99 471.09 217.35 469.89 216.32C468.81 215.28 467.42 214.74 465.63 214.74H465.6L366.96 242L365.09 242.3C363.84 242.58 362.75 243.22 361.95 244.13C360.85 245.36 360.25 246.93 360.35 248.59C360.45 250.22 361.17 251.73 362.37 252.79L382.8 271.27C372.07 277.85 361.34 282.21 350.9 284.24C342 285.94 333.2 286.8 324.74 286.8C268.87 286.8 241.38 250.13 240.24 248.58L239.69 247.82C222.69 225.5 216.94 206.49 216.94 172.48C216.94 129.43 229.54 97.53 254.39 77.68C282.05 55.62 317.63 53.91 327.89 53.91C333.49 53.91 338.59 54.34 341.85 55.09L344.03 55.59C376.3 62.89 420.48 72.89 481.73 195.92C514.08 260.88 554.65 303.37 605.65 325.77C611.58 328.8 643.2 343.87 683.75 343.87C702.67 343.87 721 340.63 738.25 334.22C768.03 323.1 837.32 285.12 837.32 172.8C837.32 97.74 805.45 56.82 778.72 35.7" fill="white"/>
</svg>
