<svg width="1000" height="460" viewBox="0 0 1000 460" fill="none" xmlns="http://www.w3.org/2000/svg">
<path fill-rule="evenodd" clip-rule="evenodd" d="M625.3 349C607 349 592 334.3 592 316C592 297.7 607 282.8 625.3 282.8C643.7 282.8 658.6 297.8 658.6 316C658.6 334.4 643.6 349.3 625.3 349.3M769.8 333.9C757.2 316.9 675.8 213.3 561.8 213.3C463 213.3 357.1 303 357.1 303C357.1 303 317.4 221.6 236.1 213.8H234C232.2 213.8 230.6 215.5 230.8 216.8C231.1 218.4 232.1 219.8 232.1 219.8C242.7 237.3 269.4 286.8 269.4 336.3C269.4 386 242.4 435.6 232.1 453L231.4 454C231.1 454.6 230.9 455 230.9 455.8C230.9 457.5 232.3 458.8 233.9 459H234.9C235.1 459 235.4 459 235.7 458.8C317.2 451 357 369.3 357 369.3C357 369.3 463 459 562 459C676 459 757.2 355.4 769.8 338.4C770.1 338 770.4 337.6 770.8 337.4V336V334.8L769.8 333.6M233.4 18.2L232.8 18C231 18 229.5 19.5 229.5 21.3V44C229.5 45 229.9 45.8 230.5 46.4C285.5 94.2 337.5 49.4 349.5 37.4L350.5 36.6C351 36.3 351.5 36 352.3 36C353.1 36 353.9 36.4 354.5 37H354.7C416.7 96.4 482 48.3 495.5 37L496.9 35.8C497.1 35.6 497.6 35.6 497.9 35.6C498.5 35.6 498.9 35.6 499.3 35.8L500.6 37C514.2 48.3 579.3 96.4 641.6 37C642.2 36.4 643 36 643.8 36C644.4 36 645 36.3 645.5 36.6C645.9 36.8 646.2 37.2 646.5 37.6C658.5 49.4 710.5 94.2 765.5 46.4C766.2 45.8 766.5 45 766.5 44V21.3C766.5 19.5 765.1 18 763.3 18C763.1 18 762.9 18 762.6 18.2L761 19C744 27.5 691.6 47.7 644 2.6L642.5 1.3C642.1 1.1 641.7 1 641.1 1H640.1C639.4 1.4 638.9 2 638.5 2.4C624.3 13.2 559.1 57.4 501.1 3.2L500.3 2.4C499.6 1.9 498.8 1.4 497.9 1.4C497.1 1.4 496.3 1.9 495.7 2.4L494.7 3.2C436.7 57.2 371.7 13.2 357.4 2.4C357 1.9 356.4 1.4 355.8 1.1H354.8C354.2 1.1 353.8 1.1 353.3 1.4L352 2.6C304.5 47.6 252 27.6 235 19L233.4 18.2ZM349.6 120C349.9 119.7 350.1 119.4 350.6 119.2C351 118.8 351.6 118.6 352.3 118.6C353.1 118.6 353.9 118.9 354.5 119.6H354.7C416.7 178.8 482 130.8 495.5 119.6L496.9 118.3L497.9 118.1C498.5 118.1 498.9 118.3 499.3 118.4L500.6 119.7C514.2 130.9 579.3 178.9 641.6 119.7C642.2 119 643 118.7 643.8 118.7C644.4 118.7 645 118.9 645.5 119.3C645.9 119.5 646.2 119.8 646.5 120.3C658.5 132 710.5 176.8 765.5 129C766.2 128.3 766.5 127.5 766.5 126.6V103.8C766.5 102 765.1 100.6 763.3 100.6H762.6L761 101.6C744 110 691.5 130.1 644 85.1L642.5 83.9C642.1 83.7 641.7 83.6 641.1 83.6C640.8 83.6 640.5 83.6 640.1 83.8C639.4 84 638.9 84.5 638.5 85.1C624.3 95.9 559.1 140.1 501.1 85.9L500.1 84.9C499.6 84.4 498.8 84.1 497.9 84.1C497.1 84.1 496.3 84.4 495.7 85.1L494.7 85.9C436.7 139.9 371.7 95.9 357.4 85.1C357 84.5 356.4 84.1 355.8 83.8L354.8 83.6C354.2 83.6 353.8 83.6 353.3 83.9L352 85C304.5 130 252 110 235 101.5L233.4 100.7H232.8C231 100.7 229.5 102 229.5 103.7V126.7C229.5 127.5 229.9 128.3 230.5 128.9C285.5 176.6 337.5 131.9 349.5 119.9" fill="white"/>
</svg>
