<svg width="1000" height="481" viewBox="0 0 1000 481" fill="none" xmlns="http://www.w3.org/2000/svg">
<path fill-rule="evenodd" clip-rule="evenodd" d="M420 279C421.3 279 422.3 280 422.3 281.3V354C422.3 355.4 421.3 356.4 420.1 356.4H390.8C389.6 356.4 388.6 355.4 388.6 354.1V281.5C388.6 280.3 389.6 279.3 390.8 279.3H420M743.7 387.7H258C257 387.7 256 388.7 256 390V419.5C256 420.7 257 421.7 258 421.7H743.7C744.9 421.7 745.9 420.7 745.9 419.5V390C745.9 388.7 744.9 387.6 743.5 387.6M743.5 446.6H258C257 446.6 256 447.6 256 448.8V478.6C256 479.8 257 480.8 258 480.8H743.7C744.9 480.8 745.9 479.8 745.9 478.6V448.8C745.9 447.6 744.9 446.6 743.5 446.6ZM651.2 198.6C645.2 193.8 628.9 182.6 609.2 182.6C595.2 182.6 582 188.3 570.2 199.3C569.4 200.1 568.9 201.1 568.9 202.3V205C568.9 206.3 569.3 207.5 570.3 208.3C571.3 209.1 572.3 209.3 573.7 209.1H574.7C575.5 208.7 576.4 208.1 577 207.5C579.8 205.8 586.8 203.5 596.7 203.5C607 203.5 627.2 206.2 646.7 224.5L647.2 224.8C648.4 226 649.9 226.6 651.5 226.6C653 226.6 654.5 225.9 655.5 224.9L656 224.5C675.7 206.2 695.8 203.5 706 203.5C716 203.5 723 205.8 725.6 207.5C726.3 208.2 727.2 208.7 728.3 209.1C728.8 209.1 730.1 209.4 731.3 209.1C733 208.6 734.3 207.1 734.3 205.1V202.8C734.3 201.8 733.8 200.6 733 199.8C721 188.5 708 182.8 693.5 182.8C674 182.8 657.8 193.8 651.5 198.6M621.2 5.00005C620.2 5.50005 619.4 6.40005 619.2 7.50005L618.6 9.20005C618.2 10.4 618.4 11.8 619.2 12.8C619.9 13.8 621 14.4 622.2 14.4H622.8C623.8 14.4 624.4 14.4 625.2 13.9C625.6 13.6 626.5 13.3 628.2 13.3C630.2 13.3 649.8 14 662.8 36L663 36.4001C663.7 37.7001 664.8 38.6001 666 38.9001H667.6C668.6 38.9001 669.4 38.9001 670.1 38.4001H670.6C677.6 34.7001 685 32.9001 692.2 32.9001C704.6 32.9001 712.6 37.9 714.5 40.1C714.9 40.8 715.5 41.4001 716.1 41.9001L717.6 42.7001H718.8C719.5 42.7001 720.1 42.7 720.8 42.3C721.8 41.8 722.5 40.9 722.8 39.8L723.2 38.2001V37C723.2 36.3 723.2 35.5 722.8 35C713.4 18.6 699.8 15 689.8 15C682.6 15 676.2 17 672.4 18.4C668 12.6 656.6 0.300049 639.6 0.300049C633.6 0.300049 627.6 1.80005 621.4 4.90005M518.6 79.6V82C518.8 83.2 519.6 84.4 520.6 85C521.6 85.8 522.8 86 523.9 85.6C523.9 85.6 524.2 85.6 524.4 85.4C525.4 85.1 526 84.4 526.4 83.9C528.6 82.2 535.2 79.5 545 79.5C554.6 79.5 569 82 583.5 94L583.9 94.4C584.9 95.4 586.2 95.8 587.5 95.8H587.9C589.5 95.6 590.9 94.8 591.9 93.8L592.1 93.5C608.3 76.5 625.7 73.9 634.7 73.9C641.1 73.9 645.7 75.2 647.3 76.2C648 76.8 648.8 77.2 649.9 77.5C650.2 77.5 650.9 77.7 651.6 77.5H652.6C654.4 76.8 655.6 75.1 655.4 73.2V71.2C655.2 70.2 654.7 69.2 653.9 68.4C644.2 60.4 633.9 56.2001 622.9 56.2001C605.7 56.2001 592.1 66.2 586.4 71.2C581.4 67.7 568.7 60.5 554 60.5C541.3 60.5 529.7 65.8 519.8 76.5C519 77.2 518.6 78.5 518.8 79.5M272.8 118.5C272.8 89.5 296.4 65.9 325.5 65.9C326.5 65.9 327.7 65.9 328.8 66.1C331.6 29.3 362.3 0.300049 399.8 0.300049C439.1 0.300049 471 32.3 471 71.5C471 82.5 468.4 93.1 463.8 102.5C499.5 110.5 526.2 142.2 526.2 180.2C526.2 224.2 490.5 259.8 446.6 259.8L340.3 259C309.3 259 284 233.8 284 202.6C284 187.6 289.8 174 299.3 163.9C283.5 154.9 272.8 137.9 272.8 118.4" fill="white"/>
</svg>
