<svg width="1000" height="552" viewBox="0 0 1000 552" fill="none" xmlns="http://www.w3.org/2000/svg">
<path fill-rule="evenodd" clip-rule="evenodd" d="M701 5.00007C701 5.00007 689.4 20.3001 692.7 35.2001C696 50.2001 713 59.0001 713 59.0001C713 59.0001 724.7 43.7001 721.3 28.8001C718 13.8001 701 5.00007 701 5.00007ZM682 92.4001C682 92.4001 693.8 77.0001 690.4 62.0001C687 47.3001 670 38.5001 670 38.5001C670 38.5001 658.5 53.8001 661.8 68.7001C665.2 83.7001 682.2 92.5001 682.2 92.5001M729.6 76.0001C729.6 76.0001 741.8 88.2001 755.6 87.0001C769.6 85.8001 779.8 71.5001 779.8 71.5001C779.8 71.5001 767.6 59.3001 753.8 60.5001C739.8 61.7001 729.5 76.0001 729.5 76.0001M749.5 10.4001C738 22.0001 739.6 42.0001 739.6 42.0001C739.6 42.0001 759.6 43.8001 770.8 32.4001C782 21.0001 780.5 0.70007 780.5 0.70007C780.5 0.70007 760.5 -0.999929 749.3 10.4001M724.5 121.4C738.3 123.1 751.3 111.2 751.3 111.2C751.3 111.2 741.9 96.7001 728.1 95.2001C714.1 93.5001 701.1 105.4 701.1 105.4C701.1 105.4 710.6 119.9 724.4 121.4M736.8 361.4H633.5C625.5 361.4 618.9 367.9 618.9 376C618.9 384 625.5 390.6 633.5 390.6H737C745 390.6 751.5 384.1 751.5 376C751.5 368 745 361.4 736.9 361.4M736.9 522.4H633.5C625.5 522.4 618.9 528.9 618.9 537C618.9 545 625.5 551.6 633.5 551.6H737C745 551.6 751.5 545.1 751.5 537C751.5 529 745 522.4 736.9 522.4ZM272.5 326C270.1 325.2 267.7 324.6 265.3 324C265.3 324 268 325 272.5 326Z" fill="white"/>
<path fill-rule="evenodd" clip-rule="evenodd" d="M440 389C446.7 389.3 453.5 389 460.4 388.6V442.6L440 442V389ZM733 401H637.4C632.8 401 629.1 404.8 629.1 409.3V438.3L566.7 445.3L475.5 443.3V387C487.5 385.4 499.8 383 511.8 379.6C599.6 354.8 618.8 282.2 616.8 231.9C615 180.9 631.3 160.9 654.8 152.1C661.6 149.5 668.3 147.9 674.4 146.9C674.6 159.4 677.2 173.9 682.8 191.5C684.8 191.5 687 191.2 689.1 191C683.1 173.3 680.7 158.6 680.5 146C692.7 144.6 701.3 145.4 701.3 145.4C701.3 145.4 693.1 141 681.5 131.4C685.5 107.1 699.9 92.2001 714.8 77.0001C723 68.6001 731.5 60.0001 738.1 49.7001L732.9 46.4001C726.7 56.2001 718.4 64.6001 710.4 72.7001C695.9 87.5001 681.4 102.7 676.4 126.7C671.6 122.5 666.4 117.5 661.4 111.7C639.7 87.3001 611.8 105.2 572 142.2C532.2 179.2 482 180.4 433.3 130.5C368.8 64.5001 312.6 64.9001 274 68.5001C300.4 79.8001 309.6 104.5 323 167.1C337 232.9 372.3 262.6 420.6 266.7C393.8 276.2 392.4 291.3 356.6 316.2C328.4 335.7 288.9 329.5 272.9 325.9C302.2 335.1 336.9 365.9 368.2 376.6C386.2 382.9 405.4 386.8 425 388.3V441.8L261.5 438V475.2L566.7 468.2L629.2 475.2V504C629.2 508.6 633.2 512.4 637.7 512.4H733C737.7 512.4 741.4 508.6 741.4 504V409C741.4 404.6 737.7 400.8 733.1 400.8L733 401ZM252.6 469C252.6 477 247.1 483.3 240.4 483.3H233C226.2 483.3 220.7 476.9 220.7 469V443.3C220.7 435.5 226.1 429.1 232.9 429.1H240.1C246.8 429.1 252.3 435.6 252.3 443.4V469" fill="white"/>
</svg>
