<svg width="1000" height="486" viewBox="0 0 1000 486" fill="none" xmlns="http://www.w3.org/2000/svg">
<path fill-rule="evenodd" clip-rule="evenodd" d="M588.7 225.7C614.4 201.9 630.5 167.9 630.5 130.2C630.5 124.6 630.1 119.2 629.5 113.6C681.5 119.2 722.3 163.4 722.3 217C722.3 247.5 709.1 274.8 688.1 294C668.6 257 631.9 231 588.8 225.7M677.2 355C677.2 412.3 630.5 459 573.2 459C554.5 459 537 454 521.8 445.3C544 422 557.6 390.5 557.6 355.8C557.6 347.3 556.8 339 555.2 330.8C573.9 341.3 595.4 347.2 618.2 347.2C638.6 347.2 657.9 342.5 675.2 334.2C676.4 340.9 677.2 347.9 677.2 355ZM323.2 355.8C323.2 348.4 324.2 341.2 325.6 334.3C342.8 342.6 362 347.3 382.2 347.3C405.2 347.3 426.5 341.3 445.2 331C443.7 338.8 442.9 346.8 442.9 355C442.9 390 456.9 422 479.6 445.6C464.2 454.6 446.4 459.8 427.3 459.8C369.9 459.8 323.3 413.2 323.3 355.8M278 217C278 163.4 318.8 119.2 371 113.6C370.2 119.1 369.8 124.6 369.8 130.2C369.8 168.2 386.2 202.6 412.4 226.5C369.1 231.5 332.4 257.5 312.4 294.1C291.4 275.1 278 247.7 278 217.1M500 26.3C542.7 26.3 579.3 52.1 595.4 88.9C553.1 96.3 517.8 124.3 500 162.1C482.4 124.3 447 96.3 404.7 88.9C421 52 457.5 26.2 500 26.2M525 262.8C539.4 255.3 555.8 250.8 573 250.8C614 250.8 649.4 274.8 666.4 309.1C652 316.8 635.6 321.1 618.4 321.1C577.4 321.1 542 297.3 525 262.9M475 263.6C458 297.6 423 321.1 382.2 321.1C365 321.1 348.8 316.8 334.5 309.4C351.5 275.4 386.7 251.9 427.5 251.9C444.5 251.9 460.8 256.2 475.1 263.6M397.7 114.3C447.7 121.8 486.4 165 486.4 217.1C486.4 222.6 485.8 227.9 485 233.1C434.8 225.6 396.2 182.5 396.2 130.3C396.2 124.9 396.8 119.6 397.6 114.3M500.6 429.6C481.3 410.6 469.1 384.3 469.1 355.1C469.1 326.3 481.1 300.1 499.9 281.4C519.3 300.4 531.5 326.7 531.5 355.9C531.5 384.7 519.8 410.7 500.8 429.6M604.4 130.3C604.4 182.5 565.8 225.6 515.7 233.1C514.9 227.9 514.3 222.6 514.3 217.1C514.3 165.1 552.9 121.8 603 114.4C603.7 119.6 604.3 124.9 604.3 130.4M748.5 217C748.5 146.8 692.5 89.4 623 87C605 36.3 557 0 500.2 0C443.6 0 395.4 36.3 377.4 87C307.8 89.3 252 146.7 252 217C252 258.7 271.7 295.8 302.3 319.7C298.9 331.2 297.1 343.3 297.1 355.7C297.1 427.7 355.6 486 427.5 486C454.7 486 480 477.6 501 463.2C521.6 477.2 546.4 485.2 573 485.2C645 485.2 703.4 426.8 703.4 355C703.4 342.7 701.6 330.8 698.4 319.5C728.9 295.7 748.4 258.5 748.4 217" fill="white"/>
</svg>
