<svg width="1350" height="246" viewBox="0 0 1350 246" fill="none" xmlns="http://www.w3.org/2000/svg">
<path d="M68 216L1282 216" stroke="#CEB98E"/>
<path d="M30 192.094C25.2718 192.094 20.6498 193.496 16.7184 196.123C12.787 198.75 9.72291 202.483 7.9135 206.851C6.1041 211.22 5.63067 216.027 6.5531 220.664C7.47553 225.301 9.75238 229.561 13.0957 232.904C16.4391 236.248 20.6988 238.524 25.3361 239.447C29.9735 240.369 34.7802 239.896 39.1485 238.086C43.5168 236.277 47.2505 233.213 49.8773 229.282C52.5042 225.35 53.9062 220.728 53.9062 216C53.8939 209.663 51.3712 203.59 46.8906 199.109C42.41 194.629 36.3365 192.106 30 192.094V192.094ZM30 237.094C25.828 237.094 21.7498 235.857 18.2809 233.539C14.8121 231.221 12.1085 227.927 10.5119 224.072C8.91538 220.218 8.49765 215.977 9.31156 211.885C10.1255 207.793 12.1345 204.034 15.0845 201.084C18.0345 198.134 21.793 196.125 25.8848 195.312C29.9766 194.498 34.2178 194.915 38.0722 196.512C41.9266 198.108 45.221 200.812 47.5388 204.281C49.8566 207.75 51.0937 211.828 51.0937 216C51.0875 221.593 48.8632 226.954 44.9087 230.909C40.9542 234.863 35.5925 237.088 30 237.094ZM38.4844 209.484L31.9922 216L38.4844 222.516C38.6136 222.645 38.7162 222.798 38.7861 222.967C38.8561 223.136 38.8921 223.317 38.8921 223.5C38.8921 223.683 38.8561 223.864 38.7861 224.033C38.7162 224.202 38.6136 224.355 38.4844 224.484C38.3551 224.614 38.2016 224.716 38.0327 224.786C37.8638 224.856 37.6828 224.892 37.5 224.892C37.3172 224.892 37.1362 224.856 36.9673 224.786C36.7984 224.716 36.6449 224.614 36.5156 224.484L30 217.992L23.4844 224.484C23.2233 224.745 22.8692 224.892 22.5 224.892C22.1308 224.892 21.7767 224.745 21.5156 224.484C21.2546 224.223 21.1079 223.869 21.1079 223.5C21.1079 223.131 21.2546 222.777 21.5156 222.516L28.0078 216L21.5156 209.484C21.2546 209.223 21.1079 208.869 21.1079 208.5C21.1079 208.131 21.2546 207.777 21.5156 207.516C21.7767 207.255 22.1308 207.108 22.5 207.108C22.8692 207.108 23.2233 207.255 23.4844 207.516L30 214.008L36.5156 207.516C36.7767 207.255 37.1308 207.108 37.5 207.108C37.8692 207.108 38.2233 207.255 38.4844 207.516C38.7454 207.777 38.8921 208.131 38.8921 208.5C38.8921 208.869 38.7454 209.223 38.4844 209.484V209.484Z" fill="#CEB98E"/>
<path d="M1331.32 209.414C1331.45 209.546 1331.55 209.702 1331.61 209.872C1331.68 210.043 1331.71 210.225 1331.71 210.408C1331.7 210.591 1331.66 210.772 1331.59 210.939C1331.51 211.107 1331.41 211.257 1331.27 211.383L1317.54 224.508C1317.27 224.758 1316.92 224.9 1316.55 224.906C1316.2 224.901 1315.85 224.759 1315.59 224.508L1308.73 217.945C1308.46 217.69 1308.3 217.34 1308.3 216.971C1308.29 216.601 1308.42 216.244 1308.68 215.977C1308.93 215.709 1309.29 215.554 1309.65 215.545C1310.02 215.537 1310.38 215.675 1310.65 215.93L1316.55 221.555L1329.35 209.367C1329.48 209.24 1329.64 209.14 1329.81 209.073C1329.98 209.007 1330.16 208.974 1330.35 208.979C1330.53 208.983 1330.71 209.024 1330.88 209.099C1331.04 209.173 1331.19 209.281 1331.32 209.414V209.414ZM1343.91 216C1343.91 220.728 1342.5 225.35 1339.88 229.282C1337.25 233.213 1333.52 236.277 1329.15 238.086C1324.78 239.896 1319.97 240.369 1315.34 239.447C1310.7 238.524 1306.44 236.248 1303.1 232.904C1299.75 229.561 1297.48 225.301 1296.55 220.664C1295.63 216.027 1296.1 211.22 1297.91 206.851C1299.72 202.483 1302.79 198.75 1306.72 196.123C1310.65 193.496 1315.27 192.094 1320 192.094C1326.34 192.106 1332.41 194.629 1336.89 199.109C1341.37 203.59 1343.89 209.663 1343.91 216V216ZM1341.09 216C1341.09 211.828 1339.86 207.75 1337.54 204.281C1335.22 200.812 1331.93 198.108 1328.07 196.512C1324.22 194.915 1319.98 194.498 1315.88 195.312C1311.79 196.125 1308.03 198.134 1305.08 201.084C1302.13 204.034 1300.13 207.793 1299.31 211.885C1298.5 215.977 1298.92 220.218 1300.51 224.072C1302.11 227.927 1304.81 231.221 1308.28 233.539C1311.75 235.857 1315.83 237.094 1320 237.094C1325.59 237.088 1330.95 234.863 1334.91 230.909C1338.86 226.954 1341.09 221.593 1341.09 216Z" fill="#CEB98E"/>
<rect opacity="0.12" x="67" width="398" height="215" fill="#CEB98E"/>
</svg>
