<svg width="97" height="30" viewBox="0 0 97 30" fill="none" xmlns="http://www.w3.org/2000/svg">
<path d="M95.3851 2.99339C95.9337 3.05686 96.4299 2.66357 96.4934 2.11495C96.5568 1.56632 96.1636 1.07012 95.6149 1.00664L95.3851 2.99339ZM0 29C0 29.5523 0.447715 30 1 30H10C10.5523 30 11 29.5523 11 29C11 28.4477 10.5523 28 10 28H2V20C2 19.4477 1.55228 19 1 19C0.447715 19 0 19.4477 0 20V29ZM95.6149 1.00664C85.4332 -0.171417 68.501 -0.218944 50.686 3.44552C32.8771 7.10874 14.0827 14.5031 0.292893 28.2929L1.70711 29.7071C15.1173 16.297 33.4896 9.02462 51.089 5.40451C68.6823 1.78564 85.4002 1.83811 95.3851 2.99339L95.6149 1.00664Z" fill="#CEB98E"/>
</svg>
